<?xml version="1.0" encoding="utf-8"?>
<!-- Generator: Adobe Illustrator 24.1.0, SVG Export Plug-In . SVG Version: 6.00 Build 0)  -->
<svg version="1.1" id="Layer_1" xmlns="http://www.w3.org/2000/svg" xmlns:xlink="http://www.w3.org/1999/xlink" x="0px" y="0px"
	 viewBox="0 0 792 612" style="enable-background:new 0 0 792 612;" xml:space="preserve">
<style type="text/css">
	.st0{fill:#FDB614;}
	.st1{fill:#7BA3B7;}
	.st2{fill:#40403F;}
</style>
<g>
	<path class="st0" d="M89.88,271.46c0,6.59-1.86,11.18-5.57,13.78c-3.42,2.4-8.13,3.6-14.11,3.6H56.62v-0.91h3.17v-31.78h-3.17
		v-0.91h14.83c6.14,0,10.75,1.26,13.82,3.77C88.35,261.52,89.88,265.67,89.88,271.46z M69.15,287.92h1.82
		c3.23,0,5.54-1.14,6.94-3.43C79.3,282.2,80,278.37,80,273v-2.78c0-7.2-1.38-11.54-4.13-13.01c-1.31-0.7-3.17-1.06-5.57-1.06h-1.15
		V287.92z"/>
	<path class="st0" d="M92.14,265.99h11.76v21.98h2.69v0.86H92.33v-0.86h2.64v-21.12h-2.83V265.99z M99.39,262.68
		c-1.7,0-2.9-0.43-3.62-1.3c-0.72-0.86-1.08-1.94-1.08-3.22c0-1.28,0.39-2.34,1.18-3.17c0.78-0.83,1.98-1.25,3.58-1.25
		c1.6,0,2.82,0.38,3.65,1.13c0.83,0.75,1.25,1.82,1.25,3.22s-0.4,2.5-1.2,3.34C102.33,262.26,101.08,262.68,99.39,262.68z"/>
	<path class="st0" d="M126.79,263.49l1.34-0.82c0.19-0.99-0.19-1.49-1.15-1.49c-1.38,0-2.06,1.06-2.06,3.17
		c0,0.83,0.11,1.79,0.34,2.88c2.43,1.63,3.65,3.72,3.65,6.26s-0.88,4.52-2.64,5.93c-1.76,1.41-4.14,2.11-7.15,2.11
		c-1.25,0-2.54-0.13-3.89-0.38c-1.41,0.9-2.11,1.57-2.11,2.02c0,0.45,1.02,0.67,3.07,0.67h4.9c7.26,0,10.9,2.61,10.9,7.82
		c0,2.82-1.1,5.05-3.29,6.7c-2.19,1.65-5.61,2.47-10.25,2.47c-7.9,0-11.86-1.71-11.86-5.14c0-1.86,1.23-3.14,3.7-3.84l2.88,1.3
		c-0.26,0.93-0.38,1.81-0.38,2.64c0,2.75,2.05,4.13,6.14,4.13c2.5,0,4.42-0.46,5.76-1.39c1.34-0.93,2.02-2.08,2.02-3.46
		c0-1.38-0.41-2.3-1.22-2.76c-0.82-0.46-2.44-0.7-4.87-0.7h-4.66c-2.59,0-4.45-0.43-5.57-1.3c-1.12-0.86-1.68-1.93-1.68-3.19
		c0-1.26,0.4-2.32,1.2-3.17c0.8-0.85,2.22-1.9,4.27-3.14c-3.71-1.06-5.57-3.49-5.57-7.3c0-2.4,0.86-4.34,2.59-5.81
		c1.73-1.47,4.32-2.21,7.78-2.21c2.08,0,3.86,0.4,5.33,1.2c-0.19-0.86-0.29-1.65-0.29-2.35c0-1.79,0.48-3.09,1.44-3.89
		c0.96-0.8,2.03-1.2,3.22-1.2c1.18,0,2.14,0.31,2.86,0.94c0.72,0.62,1.08,1.48,1.08,2.57c0,1.09-0.29,1.9-0.86,2.42
		c-0.58,0.53-1.27,0.79-2.09,0.79s-1.49-0.22-2.02-0.65C127.11,264.91,126.83,264.29,126.79,263.49z M116.62,272.47v2.59
		c0,2.14,0.18,3.6,0.55,4.37c0.37,0.77,0.93,1.15,1.68,1.15c0.75,0,1.3-0.38,1.63-1.13s0.5-2.3,0.5-4.63v-2.35
		c0-2.5-0.16-4.14-0.48-4.92c-0.32-0.78-0.86-1.18-1.61-1.18c-0.75,0-1.32,0.41-1.7,1.22C116.81,268.41,116.62,270.04,116.62,272.47
		z"/>
	<path class="st0" d="M132.41,265.99h11.76v21.98h2.69v0.86H132.6v-0.86h2.64v-21.12h-2.83V265.99z M139.66,262.68
		c-1.7,0-2.9-0.43-3.62-1.3c-0.72-0.86-1.08-1.94-1.08-3.22c0-1.28,0.39-2.34,1.18-3.17c0.78-0.83,1.98-1.25,3.58-1.25
		c1.6,0,2.82,0.38,3.65,1.13c0.83,0.75,1.25,1.82,1.25,3.22s-0.4,2.5-1.2,3.34C142.6,262.26,141.35,262.68,139.66,262.68z"/>
	<path class="st0" d="M150.22,281.97v-15.12h-2.64v-0.86h2.64v-6.19l8.93-2.21v8.4h6.24v0.86h-6.24v16.18c0,1.5,0.15,2.61,0.46,3.31
		c0.3,0.7,0.94,1.06,1.9,1.06s1.8-0.48,2.52-1.44c0.72-0.96,1.19-2.27,1.42-3.94l0.82,0.1c-0.26,2.21-0.96,3.96-2.11,5.26
		c-1.15,1.3-3.06,1.94-5.71,1.94c-2.66,0-4.69-0.53-6.1-1.58C150.92,286.68,150.22,284.76,150.22,281.97z"/>
	<path class="st0" d="M178.25,277.56h1.39v-3.7c0-3.04-0.17-5.08-0.5-6.12c-0.34-1.04-0.98-1.56-1.94-1.56
		c-0.58,0-1.1,0.15-1.56,0.46c-0.46,0.3-0.7,0.72-0.7,1.25c0,0.53,0.1,1.06,0.29,1.61h1.2c0.26,0.67,0.38,1.48,0.38,2.42
		c0,0.94-0.4,1.76-1.2,2.45c-0.8,0.69-1.81,1.03-3.02,1.03c-2.75,0-4.13-1.33-4.13-3.98c0-3.94,3.34-5.9,10.03-5.9
		c3.81,0,6.44,0.65,7.9,1.94c1.46,1.3,2.18,3.67,2.18,7.13v9.74c0,1.66,0.46,2.5,1.39,2.5c1.09,0,1.73-1.65,1.92-4.94l0.72,0.05
		c-0.13,2.82-0.66,4.75-1.58,5.81c-0.93,1.06-2.45,1.58-4.56,1.58c-3.84,0-6.05-1.18-6.62-3.55c-0.42,1.22-1.04,2.11-1.87,2.69
		c-0.83,0.58-2.05,0.86-3.65,0.86c-4.74,0-7.1-1.94-7.1-5.81c0-2.27,0.9-3.83,2.71-4.68C171.73,277.98,174.5,277.56,178.25,277.56z
		 M176.59,286.68c0.18,0.48,0.51,0.72,1.01,0.72c0.5,0,0.96-0.41,1.39-1.22c0.43-0.82,0.65-1.94,0.65-3.38v-4.46h-0.34
		c-1.98,0-2.98,1.46-2.98,4.37v0.77C176.33,285.12,176.42,286.2,176.59,286.68z"/>
	<path class="st0" d="M192.89,252.84h11.76v35.14h2.69v0.86h-14.26v-0.86h2.64V253.7h-2.83V252.84z"/>
	<path class="st0" d="M237.14,287.92l-3.5-10.37h-9.5l-3.7,10.37h3.6v0.91h-7.34v-0.91h2.26l12.24-32.98h3.94l12.1,32.98h2.21v0.91
		h-15.7v-0.91H237.14z M229.08,263.92l-4.51,12.58h8.69L229.08,263.92z"/>
	<path class="st0" d="M266.23,267.33c-1.18,0-2.22,0.77-3.12,2.3c-0.9,1.54-1.34,3.36-1.34,5.47v12.86h3.41v0.86H250.2v-0.86h2.64
		v-21.12h-2.64v-0.86h11.57v4.61c0.42-1.63,1.22-2.89,2.4-3.77c1.18-0.88,2.53-1.32,4.03-1.32c1.5,0,2.73,0.42,3.67,1.27
		c0.94,0.85,1.42,2.05,1.42,3.6c0,1.55-0.35,2.74-1.06,3.58c-0.7,0.83-1.78,1.25-3.24,1.25c-1.46,0-2.53-0.48-3.22-1.44
		c-0.69-0.96-0.78-2.29-0.26-3.98h1.73C268.04,268.15,267.7,267.33,266.23,267.33z"/>
	<path class="st0" d="M276.36,281.97v-15.12h-2.64v-0.86h2.64v-6.19l8.93-2.21v8.4h6.24v0.86h-6.24v16.18c0,1.5,0.15,2.61,0.46,3.31
		c0.3,0.7,0.94,1.06,1.9,1.06s1.8-0.48,2.52-1.44c0.72-0.96,1.19-2.27,1.42-3.94l0.82,0.1c-0.26,2.21-0.96,3.96-2.11,5.26
		c-1.15,1.3-3.06,1.94-5.71,1.94c-2.66,0-4.69-0.53-6.1-1.58C277.06,286.68,276.36,284.76,276.36,281.97z"/>
	<path class="st0" d="M325.75,299.68c1.57,0,2.78-0.75,3.62-2.26c0.85-1.5,1.27-3.36,1.27-5.57s-0.85-4.45-2.54-6.72
		c-2.43,2.78-5.78,4.18-10.03,4.18c-4.26,0-7.64-0.72-10.15-2.16c-2.51-1.44-3.77-3.71-3.77-6.82c0-2.14,0.58-3.87,1.73-5.18
		c1.15-1.31,3.09-2.27,5.81-2.88c-2.82-2.56-4.22-5.35-4.22-8.38s1.06-5.31,3.19-6.86c2.13-1.55,4.78-2.33,7.94-2.33
		s5.54,0.58,7.13,1.73s2.38,2.7,2.38,4.66c0,3.39-2.58,5.98-7.73,7.78c0.64,0.42,1.81,1.15,3.5,2.21c3.55,2.3,6.06,4.16,7.54,5.57
		c0.48-2.27,0.75-4.61,0.82-7.01h-3.79v-0.96h8.35v0.96h-3.36c-0.06,3.01-0.37,5.71-0.91,8.11c1.38,1.54,2.42,3.01,3.12,4.42
		c0.7,1.41,1.06,3.18,1.06,5.33c0,3.46-1.22,6.54-3.65,9.26c-2.43,2.72-5.2,4.08-8.3,4.08c-2.08,0-3.7-0.43-4.85-1.3
		c-1.15-0.86-1.73-1.97-1.73-3.31c0-1.34,0.38-2.39,1.13-3.14c0.75-0.75,1.7-1.13,2.86-1.13c2.56,0,3.84,1.15,3.84,3.46
		c0,0.48-0.1,1.06-0.29,1.73h-1.68C323.45,298.84,324.02,299.68,325.75,299.68z M319.22,288.07c3.39,0,6.08-1.31,8.06-3.94
		c-1.47-1.54-3.54-3.2-6.19-4.99c-4.58-3.01-7.49-5.06-8.74-6.14c-0.48,1.02-0.72,3.1-0.72,6.24c0,3.14,0.62,5.39,1.87,6.77
		C314.76,287.38,316.66,288.07,319.22,288.07z M315.24,256.84c-0.86,0.75-1.3,1.94-1.3,3.58s0.38,2.98,1.15,4.03
		c0.77,1.06,2.24,2.34,4.42,3.84c1.34-0.7,2.18-1.55,2.52-2.54c0.34-0.99,0.5-2.45,0.5-4.37c0-3.78-1.39-5.66-4.18-5.66
		C317.14,255.72,316.1,256.09,315.24,256.84z"/>
	<path class="st0" d="M383.4,271.46c0,6.59-1.86,11.18-5.57,13.78c-3.42,2.4-8.13,3.6-14.11,3.6h-13.58v-0.91h3.17v-31.78h-3.17
		v-0.91h14.83c6.14,0,10.75,1.26,13.82,3.77C381.86,261.52,383.4,265.67,383.4,271.46z M362.66,287.92h1.82
		c3.23,0,5.54-1.14,6.94-3.43c1.39-2.29,2.09-6.12,2.09-11.5v-2.78c0-7.2-1.38-11.54-4.13-13.01c-1.31-0.7-3.17-1.06-5.57-1.06
		h-1.15V287.92z"/>
	<path class="st0" d="M389.18,286.12c-2.06-2.13-3.1-5.09-3.1-8.88s1.16-6.7,3.48-8.71c2.32-2.02,5.27-3.02,8.86-3.02
		c7.26,0,10.75,3.65,10.46,10.94h-13.54v1.87c0,3.14,0.4,5.5,1.2,7.1c0.8,1.6,2.19,2.4,4.18,2.4c3.71,0,6.14-1.98,7.3-5.95
		l0.86,0.14c-0.61,2.3-1.7,4.1-3.29,5.38c-1.58,1.28-3.96,1.92-7.13,1.92C394.34,289.32,391.25,288.25,389.18,286.12z M395.4,275.49
		h4.94v-2.35c0-2.59-0.15-4.36-0.46-5.3c-0.3-0.94-0.91-1.42-1.82-1.42c-0.91,0-1.58,0.5-2.02,1.51c-0.43,1.01-0.65,2.74-0.65,5.21
		V275.49z"/>
	<path class="st0" d="M411.24,289.32v-8.59h0.58c0.83,2.78,1.95,4.74,3.36,5.86s3.17,1.68,5.28,1.68c3.26,0,4.9-1.04,4.9-3.12
		c0-0.9-0.4-1.57-1.2-2.02c-1.25-0.7-2.85-1.25-4.8-1.63c-2.18-0.58-4-1.34-5.47-2.3c-1.76-1.15-2.64-2.98-2.64-5.47
		s0.77-4.49,2.3-5.98c1.54-1.49,3.58-2.23,6.14-2.23c1.57,0,3.18,0.37,4.85,1.1c0.61,0.26,1.07,0.38,1.39,0.38
		c0.32,0,0.59-0.11,0.82-0.34c0.22-0.22,0.5-0.64,0.82-1.25h0.53v7.34h-0.58c-1.63-4.16-4.16-6.24-7.58-6.24
		c-1.5,0-2.62,0.26-3.36,0.79c-0.74,0.53-1.1,1.19-1.1,1.99c0,0.48,0.11,0.86,0.34,1.13c0.22,0.27,0.4,0.47,0.53,0.6
		c0.13,0.13,0.34,0.26,0.62,0.41s0.53,0.26,0.72,0.34c0.19,0.08,0.49,0.18,0.89,0.31c0.4,0.13,0.7,0.21,0.89,0.24
		c2.18,0.54,3.74,1.02,4.7,1.42c0.96,0.4,1.87,0.89,2.74,1.46c1.76,1.22,2.64,3.18,2.64,5.88c0,2.7-0.8,4.75-2.4,6.14
		c-1.6,1.39-3.79,2.09-6.58,2.09c-1.99,0-3.91-0.46-5.76-1.39c-0.38-0.26-0.69-0.38-0.91-0.38c-0.7,0-1.39,0.59-2.06,1.78H411.24z"
		/>
	<path class="st0" d="M430.77,265.99h11.76v21.98h2.69v0.86h-14.26v-0.86h2.64v-21.12h-2.83V265.99z M438.02,262.68
		c-1.7,0-2.9-0.43-3.62-1.3c-0.72-0.86-1.08-1.94-1.08-3.22c0-1.28,0.39-2.34,1.18-3.17c0.78-0.83,1.98-1.25,3.58-1.25
		c1.6,0,2.82,0.38,3.65,1.13c0.83,0.75,1.25,1.82,1.25,3.22s-0.4,2.5-1.2,3.34C440.96,262.26,439.72,262.68,438.02,262.68z"/>
	<path class="st0" d="M465.43,263.49l1.34-0.82c0.19-0.99-0.19-1.49-1.15-1.49c-1.38,0-2.06,1.06-2.06,3.17
		c0,0.83,0.11,1.79,0.34,2.88c2.43,1.63,3.65,3.72,3.65,6.26s-0.88,4.52-2.64,5.93c-1.76,1.41-4.14,2.11-7.15,2.11
		c-1.25,0-2.54-0.13-3.89-0.38c-1.41,0.9-2.11,1.57-2.11,2.02c0,0.45,1.02,0.67,3.07,0.67h4.9c7.26,0,10.9,2.61,10.9,7.82
		c0,2.82-1.1,5.05-3.29,6.7c-2.19,1.65-5.61,2.47-10.25,2.47c-7.9,0-11.86-1.71-11.86-5.14c0-1.86,1.23-3.14,3.7-3.84l2.88,1.3
		c-0.26,0.93-0.38,1.81-0.38,2.64c0,2.75,2.05,4.13,6.14,4.13c2.5,0,4.42-0.46,5.76-1.39c1.34-0.93,2.02-2.08,2.02-3.46
		c0-1.38-0.41-2.3-1.22-2.76c-0.82-0.46-2.44-0.7-4.87-0.7h-4.66c-2.59,0-4.45-0.43-5.57-1.3c-1.12-0.86-1.68-1.93-1.68-3.19
		c0-1.26,0.4-2.32,1.2-3.17c0.8-0.85,2.22-1.9,4.27-3.14c-3.71-1.06-5.57-3.49-5.57-7.3c0-2.4,0.86-4.34,2.59-5.81
		c1.73-1.47,4.32-2.21,7.78-2.21c2.08,0,3.86,0.4,5.33,1.2c-0.19-0.86-0.29-1.65-0.29-2.35c0-1.79,0.48-3.09,1.44-3.89
		c0.96-0.8,2.03-1.2,3.22-1.2s2.14,0.31,2.86,0.94s1.08,1.48,1.08,2.57c0,1.09-0.29,1.9-0.86,2.42c-0.58,0.53-1.27,0.79-2.09,0.79
		s-1.49-0.22-2.02-0.65C465.74,264.91,465.46,264.29,465.43,263.49z M455.25,272.47v2.59c0,2.14,0.18,3.6,0.55,4.37
		c0.37,0.77,0.93,1.15,1.68,1.15c0.75,0,1.3-0.38,1.63-1.13s0.5-2.3,0.5-4.63v-2.35c0-2.5-0.16-4.14-0.48-4.92
		c-0.32-0.78-0.86-1.18-1.61-1.18s-1.32,0.41-1.7,1.22C455.44,268.41,455.25,270.04,455.25,272.47z"/>
	<path class="st0" d="M471.33,265.99h11.57v4.42c0.51-1.47,1.3-2.66,2.35-3.55c1.06-0.9,2.66-1.34,4.8-1.34
		c4.96,0,7.44,2.67,7.44,8.02v14.45h2.69v0.86H486.6v-0.86h1.97v-15.6c0-1.92-0.13-3.16-0.38-3.72c-0.26-0.56-0.72-0.84-1.39-0.84
		c-1.02,0-1.93,0.67-2.71,2.02c-0.79,1.34-1.18,2.98-1.18,4.9v13.25h2.06v0.86h-13.63v-0.86h2.64v-21.12h-2.64V265.99z"/>
</g>
<g>
	<path class="st1" d="M387.68,308.4h14.11c4.83,0,8.43,0.7,10.8,2.09s3.55,3.88,3.55,7.46c0,3.97-1.44,6.7-4.32,8.21
		c-2.69,1.38-6.45,2.06-11.28,2.06h-0.38v12.86h6V342h-18.48v-0.91h3.12v-31.78h-3.12V308.4z M400.16,309.31v18h1.01
		c1.92,0,3.25-0.66,3.98-1.97c0.74-1.31,1.1-3.44,1.1-6.38v-2.3c0-2.72-0.34-4.62-1.03-5.71c-0.69-1.09-1.94-1.63-3.77-1.63H400.16z
		"/>
	<path class="st1" d="M417.87,306h11.57v17.57c0.51-1.47,1.3-2.66,2.35-3.55s2.66-1.34,4.8-1.34c4.96,0,7.44,2.67,7.44,8.02v14.45
		h2.69V342h-13.58v-0.86h1.97v-15.6c0-1.92-0.13-3.16-0.38-3.72c-0.26-0.56-0.72-0.84-1.39-0.84c-1.02,0-1.93,0.67-2.71,2.02
		c-0.79,1.34-1.18,2.98-1.18,4.9v13.25h2.06V342h-13.63v-0.86h2.64v-34.27h-2.64V306z"/>
	<path class="st1" d="M450.89,339.41c-2.05-2.05-3.07-4.98-3.07-8.81s1.1-6.77,3.29-8.83c2.19-2.06,5.27-3.1,9.24-3.1
		s6.93,0.95,8.88,2.86c1.95,1.9,2.93,4.81,2.93,8.71c0,8.16-4.06,12.24-12.19,12.24C455.96,342.48,452.94,341.46,450.89,339.41z
		 M462.94,332.54v-4.08c0-3.1-0.17-5.37-0.5-6.79c-0.34-1.42-1.11-2.14-2.33-2.14c-0.7,0-1.27,0.2-1.7,0.6
		c-0.43,0.4-0.74,1.06-0.94,1.99c-0.29,1.44-0.43,3.63-0.43,6.58v3.74c0,3.49,0.1,5.58,0.31,6.29c0.21,0.7,0.42,1.28,0.65,1.73
		c0.35,0.77,1.04,1.15,2.06,1.15c1.25,0,2.06-0.72,2.45-2.16C462.79,338.43,462.94,336.13,462.94,332.54z"/>
	<path class="st1" d="M475.9,335.14v-15.12h-2.64v-0.86h2.64v-6.19l8.93-2.21v8.4h6.24v0.86h-6.24v16.18c0,1.5,0.15,2.61,0.46,3.31
		c0.3,0.7,0.94,1.06,1.9,1.06s1.8-0.48,2.52-1.44c0.72-0.96,1.19-2.27,1.42-3.94l0.82,0.1c-0.26,2.21-0.96,3.96-2.11,5.26
		c-1.15,1.3-3.06,1.94-5.71,1.94s-4.69-0.53-6.1-1.58C476.6,339.84,475.9,337.92,475.9,335.14z"/>
	<path class="st1" d="M495.87,339.41c-2.05-2.05-3.07-4.98-3.07-8.81s1.1-6.77,3.29-8.83c2.19-2.06,5.27-3.1,9.24-3.1
		c3.97,0,6.93,0.95,8.88,2.86c1.95,1.9,2.93,4.81,2.93,8.71c0,8.16-4.06,12.24-12.19,12.24
		C500.94,342.48,497.91,341.46,495.87,339.41z M507.92,332.54v-4.08c0-3.1-0.17-5.37-0.5-6.79c-0.34-1.42-1.11-2.14-2.33-2.14
		c-0.7,0-1.27,0.2-1.7,0.6s-0.74,1.06-0.94,1.99c-0.29,1.44-0.43,3.63-0.43,6.58v3.74c0,3.49,0.1,5.58,0.31,6.29
		c0.21,0.7,0.42,1.28,0.65,1.73c0.35,0.77,1.04,1.15,2.06,1.15c1.25,0,2.06-0.72,2.45-2.16
		C507.77,338.43,507.92,336.13,507.92,332.54z"/>
	<path class="st1" d="M537.72,316.66l1.34-0.82c0.19-0.99-0.19-1.49-1.15-1.49c-1.38,0-2.06,1.06-2.06,3.17
		c0,0.83,0.11,1.79,0.34,2.88c2.43,1.63,3.65,3.72,3.65,6.26s-0.88,4.52-2.64,5.93c-1.76,1.41-4.14,2.11-7.15,2.11
		c-1.25,0-2.54-0.13-3.89-0.38c-1.41,0.9-2.11,1.57-2.11,2.02c0,0.45,1.02,0.67,3.07,0.67h4.9c7.26,0,10.9,2.61,10.9,7.82
		c0,2.82-1.1,5.05-3.29,6.7c-2.19,1.65-5.61,2.47-10.25,2.47c-7.9,0-11.86-1.71-11.86-5.14c0-1.86,1.23-3.14,3.7-3.84l2.88,1.3
		c-0.26,0.93-0.38,1.81-0.38,2.64c0,2.75,2.05,4.13,6.14,4.13c2.5,0,4.42-0.46,5.76-1.39c1.34-0.93,2.02-2.08,2.02-3.46
		s-0.41-2.3-1.22-2.76c-0.82-0.46-2.44-0.7-4.87-0.7h-4.66c-2.59,0-4.45-0.43-5.57-1.3s-1.68-1.93-1.68-3.19
		c0-1.26,0.4-2.32,1.2-3.17c0.8-0.85,2.22-1.9,4.27-3.14c-3.71-1.06-5.57-3.49-5.57-7.3c0-2.4,0.86-4.34,2.59-5.81
		c1.73-1.47,4.32-2.21,7.78-2.21c2.08,0,3.86,0.4,5.33,1.2c-0.19-0.86-0.29-1.65-0.29-2.35c0-1.79,0.48-3.09,1.44-3.89
		c0.96-0.8,2.03-1.2,3.22-1.2c1.18,0,2.14,0.31,2.86,0.94c0.72,0.62,1.08,1.48,1.08,2.57s-0.29,1.9-0.86,2.42s-1.27,0.79-2.09,0.79
		c-0.82,0-1.49-0.22-2.02-0.65C538.04,318.07,537.75,317.46,537.72,316.66z M527.55,325.63v2.59c0,2.14,0.18,3.6,0.55,4.37
		c0.37,0.77,0.93,1.15,1.68,1.15c0.75,0,1.3-0.38,1.63-1.13s0.5-2.3,0.5-4.63v-2.35c0-2.5-0.16-4.13-0.48-4.92
		c-0.32-0.78-0.86-1.18-1.61-1.18c-0.75,0-1.32,0.41-1.7,1.22C527.74,321.58,527.55,323.2,527.55,325.63z"/>
	<path class="st1" d="M559.56,320.5c-1.18,0-2.22,0.77-3.12,2.3c-0.9,1.54-1.34,3.36-1.34,5.47v12.86h3.41V342h-14.98v-0.86h2.64
		v-21.12h-2.64v-0.86h11.57v4.61c0.42-1.63,1.22-2.89,2.4-3.77c1.18-0.88,2.53-1.32,4.03-1.32c1.5,0,2.73,0.42,3.67,1.27
		c0.94,0.85,1.42,2.05,1.42,3.6c0,1.55-0.35,2.74-1.06,3.58c-0.71,0.83-1.79,1.25-3.24,1.25c-1.46,0-2.53-0.48-3.22-1.44
		c-0.69-0.96-0.78-2.29-0.26-3.98h1.73C561.37,321.31,561.03,320.5,559.56,320.5z"/>
	<path class="st1" d="M578.09,330.72h1.39v-3.7c0-3.04-0.17-5.08-0.5-6.12c-0.34-1.04-0.98-1.56-1.94-1.56
		c-0.58,0-1.1,0.15-1.56,0.46c-0.46,0.3-0.7,0.72-0.7,1.25c0,0.53,0.1,1.06,0.29,1.61h1.2c0.26,0.67,0.38,1.48,0.38,2.42
		c0,0.94-0.4,1.76-1.2,2.45c-0.8,0.69-1.81,1.03-3.02,1.03c-2.75,0-4.13-1.33-4.13-3.98c0-3.94,3.34-5.9,10.03-5.9
		c3.81,0,6.44,0.65,7.9,1.94c1.46,1.3,2.18,3.67,2.18,7.13v9.74c0,1.66,0.46,2.5,1.39,2.5c1.09,0,1.73-1.65,1.92-4.94l0.72,0.05
		c-0.13,2.82-0.66,4.75-1.58,5.81c-0.93,1.06-2.45,1.58-4.56,1.58c-3.84,0-6.05-1.18-6.62-3.55c-0.42,1.22-1.04,2.11-1.87,2.69
		s-2.05,0.86-3.65,0.86c-4.74,0-7.1-1.94-7.1-5.81c0-2.27,0.9-3.83,2.71-4.68C571.57,331.14,574.35,330.72,578.09,330.72z
		 M576.43,339.84c0.17,0.48,0.51,0.72,1.01,0.72c0.5,0,0.96-0.41,1.39-1.22c0.43-0.82,0.65-1.94,0.65-3.38v-4.46h-0.34
		c-1.99,0-2.98,1.46-2.98,4.37v0.77C576.17,338.29,576.26,339.36,576.43,339.84z"/>
	<path class="st1" d="M603.91,319.15v3.79c1.25-2.85,3.46-4.27,6.62-4.27c2.75,0,4.89,0.99,6.41,2.98s2.28,4.99,2.28,9.02
		c0,4.03-0.82,7.01-2.47,8.93c-1.65,1.92-4.12,2.88-7.42,2.88c-1.54,0-2.69-0.19-3.46-0.58c-0.77-0.38-1.39-0.98-1.87-1.78v12.43
		h6.19v0.86h-17.76v-0.86h2.64v-32.54h-2.54v-0.86H603.91z M609.48,322.44c-0.32-1.14-0.94-1.7-1.87-1.7s-1.76,0.6-2.5,1.8
		s-1.1,2.81-1.1,4.82v8.78c0,1.38,0.27,2.54,0.82,3.5s1.34,1.44,2.4,1.44s1.78-0.7,2.16-2.11s0.58-3.87,0.58-7.39v-2.5
		C609.96,325.79,609.8,323.58,609.48,322.44z"/>
	<path class="st1" d="M620.67,306h11.57v17.57c0.51-1.47,1.3-2.66,2.35-3.55c1.06-0.9,2.66-1.34,4.8-1.34
		c4.96,0,7.44,2.67,7.44,8.02v14.45h2.69V342h-13.58v-0.86h1.97v-15.6c0-1.92-0.13-3.16-0.38-3.72c-0.26-0.56-0.72-0.84-1.39-0.84
		c-1.02,0-1.93,0.67-2.71,2.02s-1.18,2.98-1.18,4.9v13.25h2.06V342h-13.63v-0.86h2.64v-34.27h-2.64V306z"/>
	<path class="st1" d="M647.59,320.02v-0.86h13.92v0.86h-2.59l5.23,15.94l5.57-15.94h-3.22v-0.86h6.77v0.86h-2.4l-8.98,25.87
		c-1.06,3.01-2.24,5.11-3.55,6.31c-1.31,1.2-2.91,1.8-4.8,1.8c-1.89,0-3.38-0.43-4.46-1.3c-1.09-0.86-1.63-1.97-1.63-3.31
		c0-1.34,0.35-2.37,1.06-3.07c0.7-0.7,1.63-1.06,2.78-1.06c2.66,0,3.98,1.1,3.98,3.31c0,0.48-0.1,1.06-0.29,1.73h-1.68
		c-0.26,0.74-0.29,1.34-0.1,1.82c0.19,0.48,0.62,0.72,1.3,0.72c1.31,0,2.48-0.65,3.5-1.94c1.02-1.3,2-3.27,2.93-5.93l1.06-2.98
		h-4.22l-8.21-21.98H647.59z"/>
</g>
<g>
	<path class="st2" d="M295.61,170.35h21.9v1.56H313v54.3h4.51v1.56h-25.02v-1.56h4.51v-51.26h-0.33l-12.3,52.82h-10.25l-14.44-53.07
		h-0.33v51.51h4.51v1.56h-11.16v-1.56h4.51v-54.3h-4.51v-1.56h22.15l10.91,42.24L295.61,170.35z"/>
	<path class="st2" d="M320.05,188.73h20.1v37.57h4.59v1.48h-24.36v-1.48h4.51V190.2h-4.84V188.73z M332.44,183.07
		c-2.9,0-4.96-0.74-6.19-2.21c-1.23-1.48-1.85-3.31-1.85-5.5c0-2.19,0.67-3.99,2.01-5.41c1.34-1.42,3.38-2.13,6.11-2.13
		c2.73,0,4.81,0.64,6.23,1.93c1.42,1.29,2.13,3.12,2.13,5.5c0,2.38-0.68,4.28-2.05,5.7C337.47,182.36,335.34,183.07,332.44,183.07z"
		/>
	<path class="st2" d="M346.55,188.73h19.77v7.55c0.87-2.51,2.21-4.54,4.02-6.07c1.8-1.53,4.54-2.3,8.2-2.3
		c8.48,0,12.71,4.57,12.71,13.7v24.69h4.59v1.48h-23.21v-1.48h3.36v-26.66c0-3.28-0.22-5.4-0.66-6.36
		c-0.44-0.96-1.23-1.44-2.38-1.44c-1.75,0-3.29,1.15-4.63,3.44c-1.34,2.3-2.01,5.08-2.01,8.37v22.64h3.53v1.48h-23.29v-1.48h4.51
		V190.2h-4.51V188.73z"/>
	<path class="st2" d="M412.57,170.35h29.53v1.8h-8.69v53.81h2.95c4.65,0,8.35-1.42,11.11-4.27c2.76-2.84,5.56-7.22,8.41-13.12h1.72
		l-1.56,19.19h-43.47v-1.8h4.84v-53.81h-4.84V170.35z"/>
	<path class="st2" d="M466.25,223.13c-3.53-3.64-5.29-8.69-5.29-15.17c0-6.48,1.98-11.44,5.95-14.89c3.96-3.44,9.01-5.17,15.13-5.17
		c12.41,0,18.37,6.23,17.88,18.7h-23.13v3.2c0,5.36,0.68,9.41,2.05,12.14c1.37,2.73,3.74,4.1,7.14,4.1c6.34,0,10.5-3.39,12.47-10.17
		l1.48,0.25c-1.04,3.94-2.91,7-5.62,9.19c-2.71,2.19-6.77,3.28-12.18,3.28C475.07,228.59,469.78,226.77,466.25,223.13z
		 M476.88,204.97h8.45v-4.02c0-4.43-0.26-7.45-0.78-9.06c-0.52-1.61-1.56-2.42-3.12-2.42c-1.56,0-2.71,0.86-3.44,2.58
		c-0.74,1.72-1.11,4.69-1.11,8.9V204.97z"/>
	<path class="st2" d="M508.58,223.13c-3.53-3.64-5.29-8.69-5.29-15.17c0-6.48,1.98-11.44,5.95-14.89s9.01-5.17,15.13-5.17
		c12.41,0,18.37,6.23,17.88,18.7h-23.13v3.2c0,5.36,0.68,9.41,2.05,12.14c1.37,2.73,3.74,4.1,7.14,4.1c6.34,0,10.5-3.39,12.47-10.17
		l1.48,0.25c-1.04,3.94-2.91,7-5.62,9.19c-2.71,2.19-6.77,3.28-12.18,3.28C517.39,228.59,512.1,226.77,508.58,223.13z M519.2,204.97
		h8.45v-4.02c0-4.43-0.26-7.45-0.78-9.06c-0.52-1.61-1.56-2.42-3.12-2.42s-2.71,0.86-3.44,2.58c-0.74,1.72-1.11,4.69-1.11,8.9
		V204.97z"/>
</g>
</svg>
