<?xml version="1.0" encoding="utf-8"?>
<!-- Generator: Adobe Illustrator 24.1.0, SVG Export Plug-In . SVG Version: 6.00 Build 0)  -->
<svg version="1.1" xmlns="http://www.w3.org/2000/svg" xmlns:xlink="http://www.w3.org/1999/xlink" x="0px" y="0px"
	 viewBox="0 0 612 792" style="enable-background:new 0 0 612 792;" xml:space="preserve">
<style type="text/css">
	.st0{fill:#83C441;}
	.st1{opacity:0.2;}
	.st2{fill:#FFFFFF;}
	.st3{fill:none;}
	.st4{fill:#C82027;}
	.st5{font-family:'Anton-Regular';}
	.st6{font-size:130px;}
	.st7{font-size:90px;}
	.st8{font-size:72px;}
	.st9{fill:#282525;}
	.st10{fill:#9D6026;}
	.st11{fill:#232221;}
	.st12{fill:#F9F1D7;}
	.st13{fill:#F5CC5E;}
	.st14{fill:#F7D194;}
	.st15{fill:#68401C;}
	.st16{fill:#EAD6B2;}
	.st17{fill:#223F93;}
	.st18{fill:none;stroke:#000000;stroke-width:0.1;stroke-miterlimit:10;}
	.st19{fill:#37C6F4;}
	.st20{opacity:0.06;}
	.st21{fill:#595A5A;}
	.st22{fill:#FAFCFA;stroke:#FDFEFE;stroke-width:0.1;stroke-miterlimit:10;}
	.st23{fill:#FDFEFE;}
	.st24{fill:#8E8E8E;}
	.st25{fill:#57BCB9;stroke:#565959;stroke-width:0.75;stroke-miterlimit:10;}
	.st26{fill:#FCEE21;}
	.st27{font-family:'Womby-Regular';}
	.st28{font-size:9px;}
	.st29{opacity:0.34;}
	.st30{fill:#A9A8A9;}
</style>
<g id="Layer_2">
	<rect class="st0" width="612" height="792"/>
	<g class="st1">
		<g>
			<path class="st2" d="M307.26,761.36c40.89,1.54,79.03-6.98,114.43-25.58c36.82-11.98,68.68-32.45,95.58-61.41
				c28.96-26.9,49.43-58.76,61.41-95.58c18.6-35.39,27.12-73.54,25.58-114.43c-3.54-26.32-7.07-52.64-10.61-78.95
				c-14.11-50.31-39.57-94-76.38-131.06c-20.04-15.48-40.07-30.96-60.11-46.44c-46.32-26.87-96.29-40.38-149.9-40.55
				c-40.89-1.54-79.03,6.98-114.43,25.58c-36.82,11.98-68.68,32.45-95.58,61.41c-28.96,26.9-49.43,58.76-61.41,95.58
				c-18.6,35.39-27.12,73.54-25.58,114.43c3.54,26.32,7.07,52.64,10.61,78.95c14.11,50.31,39.57,94,76.38,131.06
				c20.04,15.48,40.07,30.96,60.11,46.44C203.68,747.68,253.64,761.2,307.26,761.36L307.26,761.36z"/>
		</g>
	</g>
	<g class="st1">
		<g>
			<path class="st2" d="M70.03,218.74c8.76,15.17,19.9,29.08,32.9,40.82c11.92,10.76,32.1,0.42,27.58-16.05
				c-1.56-5.68-1.75-8.26-2.31-12.96c-0.69-5.88-1.28-11.91-2.93-17.62c-3.19-11.08-9.34-20.33-18.94-26.78
				c-13.78-9.26-31.14,8.94-22.58,22.58c5.04,8.02,11.15,15.1,18.47,21.1c1.79,1.47,3.63,2.88,5.32,4.47
				c0.85,0.78,1.66,1.61,2.43,2.47c-0.97-1.31-0.92-1.16,0.14,0.45c-0.12-0.38-0.25-0.75-0.37-1.13c0.5,1.93,0.58,1.96,0.25,0.09
				c1.27-3.25,0.95-4.95,5.46-6.17c1.97-0.43,3.87-0.33,5.69,0.32c1.2,0.98,1.07,0.83-0.4-0.43c-1.33-1.25-2.71-2.46-4.07-3.68
				c-3.61-3.27-7.24-6.53-10.84-9.82c-1.12-1.03-2.26-2.04-3.33-3.12c-0.72-0.71-1.41-1.45-2.08-2.22c1.02,1.37,1,1.27-0.05-0.31
				c0.52,1.63,0.53,1.64,0.04,0.02c0.21,2.28,0.29,2.47,0.26,0.57c-0.28,2.44-1.03,4.78-3.34,6.13c7.45-4.36,10.75-15.08,5.92-22.58
				c-4.84-7.51-14.6-10.58-22.58-5.92c-7.98,4.67-12.79,13.12-13,22.36c-0.2,8.83,3.75,16.53,9.42,23.06
				c4.43,5.1,9.9,9.41,14.9,13.94c6.14,5.56,12.31,12.17,20.79,13.8c10.57,2.03,21.05-2.83,26.52-12.13
				c5.12-8.72,4.46-19.22,0.03-28.04c-3.34-6.64-8.8-11.39-14.43-16.01c-2.66-2.18-5.19-4.47-7.52-7.01
				c-0.54-0.59-2.95-3.47-2.53-2.91c0.6,0.76,0.36,0.4-0.73-1.08c-0.64-0.94-1.26-1.89-1.85-2.87
				c-7.53,7.53-15.05,15.05-22.58,22.58c-2.8-1.88,1.35,1.34,1.95,2.11c-2.15-2.72,0.15,0.78,0.55,1.43
				c0.82,1.72,0.86,1.73,0.12,0.04c0.35,0.91,0.66,1.84,0.95,2.77c0.5,1.63,0.89,3.29,1.23,4.96c0.85,4.24,0.76,5.2,1.37,10.13
				c0.67,5.46,1.38,10.88,2.84,16.2c9.19-5.35,18.39-10.7,27.58-16.05c-12.2-11.01-19.81-20.41-27.74-34.14
				c-4.32-7.48-15.11-10.73-22.58-5.92C68.4,201.03,65.41,210.74,70.03,218.74L70.03,218.74z"/>
		</g>
	</g>
	<g class="st1">
		<g>
			<path class="st2" d="M315.4,285.59c-6.25-8.25-15.26-12.78-25.73-9.85c-10.84,3.03-17.38,13.51-17.2,24.43
				c0.28,17.07,16.48,28.3,30.51,34.65c7.37,3.34,15.86,6.92,24.12,6.88c12.3-0.05,20.14-8.77,24.12-19.5
				c5.04-13.59,4.15-31.36-6.75-41.99c-6.5-6.33-14.54-9.11-23.38-10.11c-7.93-0.9-16.94-0.97-23.92,3.42
				c-9.56,6.01-12.42,18.21-7.41,28.14c4.54,9,13.59,14.17,23.45,14.99c19.62,1.64,33.85-18.99,23.9-36.45
				c-10.52-18.46-36.51-15.86-47.28,0.82c-9.58,14.83-7.39,40.8,12.1,46.29c18.39,5.18,33.54-10.82,37.14-27.54
				c2.59-12.01-5.44-23.71-18.19-23.93c-9.25-0.15-18.71,5-25.63,10.7c-8.23,6.77-12.33,17.59-6.98,27.55
				c4.45,8.27,13.65,12.99,22.94,12.18c22.2-1.92,31.57-26.25,22.36-44.85c-7.26-14.67-25-22.77-40.67-17.39
				c-8.05,2.76-15,8.38-18.67,16.12c-6.08,12.82-0.04,23.6,10.39,31.37c5.71,4.25,12.01,7.34,18.7,9.77
				c8.8,3.19,20.17,5.64,28.59,0.44c17.93-11.08,11.67-41.52-4.64-50.78c-18.83-10.7-39.1,2.91-48.04,19.63
				c-5.24,9.79-9.69,20.2-4.52,31c4.56,9.53,15.87,14.65,26.09,14.6c10.18-0.05,21.6-4.45,26.74-13.77
				c7.53-13.66-2.23-29.12-17.22-29.91c-8.63-0.45-16.88,7.91-16.5,16.5c0.42,9.33,7.25,16.01,16.5,16.5
				c0.38,0.02,0.76,0.04,1.15,0.06c-2.78-0.75-5.55-1.5-8.33-2.25c-0.53-0.36-1.06-0.71-1.59-1.07c-1.41-2.43-2.83-4.85-4.24-7.28
				c-0.71-5.25,0.68-9.18,4.19-11.78c1.34-0.45,1.45-0.51,0.33-0.16c-1.18,0.29-1,0.33,0.54,0.12c-1.99-0.07-2.09,0.04-0.3,0.32
				c-0.51-0.12-1.02-0.24-1.52-0.36c1.61,0.84,1.63,0.82,0.04-0.06c2.54,1.38,3.82,3.46,3.85,6.24c0.96,1.32,1.11,2.56,0.45,3.71
				c0.69-0.08,4.34-8.44,4.83-9.22c0.41-0.68,0.85-1.34,1.31-1.99c-0.98,1.25-0.83,1.15,0.43-0.3c0.38-0.36,0.76-0.73,1.14-1.09
				c-1.4,0.99-1.34,1,0.19,0.02c-3.36,1.38,0.73-0.15,1.3-0.3c-2.1,0.23-2.19,0.32-0.28,0.26c-0.58-0.06-1.15-0.13-1.73-0.19
				c-1.04-0.34-1.89-0.93-2.57-1.78c1.15,1.17,1.31,1.32,0.49,0.44c-1.04-2.97-0.81-1.42-0.35,0.8c-0.62-2.93-0.44,0.07-0.17,1.3
				c0.43-2.12,0.49-2.56,0.2-1.32c-1.45,5.31,2.62,2.79,12.21-7.58c-3.22-1.39-7.24-1.55-10.59-2.85c-1.07-0.41-1.05-0.4,0.05,0.02
				c-0.77-0.36-1.52-0.74-2.26-1.14c-1.75-0.93-3.4-1.98-5.07-3.04c-0.75-0.47-1.99-1.34-1.89-1.48
				c-1.19,11.65-0.68,15.43,1.54,11.34c0.61-1.01,0.45-0.82-0.5,0.56c1.37-1.27,1.35-1.27-0.06-0.01c0.41-0.22,0.82-0.44,1.23-0.67
				c-1.78,0.76-1.77,0.86,0.03,0.3c-1.84,0.2-2.14,0.29-0.9,0.26c1.24,0.04,0.94-0.02-0.92-0.17c1.8,0.57,1.79,0.51-0.03-0.19
				c0.4,0.23,0.81,0.46,1.21,0.69c-1.43-1.24-1.45-1.23-0.05,0.03c1.1,1.22,1.27,1.38,0.52,0.48c-0.71-0.93-0.62-0.71,0.27,0.66
				c-0.67-1.87-0.69-1.84-0.06,0.09c-0.02-0.45-0.04-0.9-0.06-1.35c-0.04,1.99,0.07,2.05,0.33,0.2c-0.48,1.66-0.54,1.96-0.19,0.89
				c1.32-1.37,1.46-2.62,3.67-3.12c2.6-0.59,5.59,0.96,7.38,2.61c-3.42,14.3-3,19.38,1.28,15.25c0.86-0.76,0.76-0.7-0.3,0.16
				c1.26-0.89,2.63-1.68,4.02-2.34c-1.57,0.63-1.44,0.61,0.39-0.04c3.01-0.67,1.96-0.87-3.16-0.58c-2.43-1.41-4.85-2.83-7.28-4.24
				c0.23,0.23,0.47,0.47,0.7,0.7c-1.41-2.43-2.83-4.85-4.24-7.28c0.66-5.92,0.58-7.45-0.22-4.57c-0.71,1.79-0.73,1.91-0.06,0.34
				c-0.26,0.56-1.97,4.12-2.19,4.02c-0.74-0.36,3.93-2.5,0.81-1.18c4.02-1.7,8.81-1.79,11.35,3.62c0.48,1.02,0.71,4.27,0.69,0.93
				c-0.03-4.22-0.95,2.36,0.18-1.69c0.59-1.85,0.61-1.94,0.04-0.27c-1,1.03-1.12,1.15-0.36,0.36c0.83-0.82,0.62-0.69-0.62,0.4
				c-1.86,0.61-1.89,0.64-0.08,0.11c-4.17,0.4-8-1.1-8.85-5.77c-0.85-4.67,2.29-8.47,6.36-10.05c2.08-0.15,2.49-0.21,1.21-0.2
				c-1.25-0.03-0.87,0.03,1.12,0.18c-2.86-0.6,1.03,0.59,2,1.6c4.14,4.7,2.14,10.36-6.01,16.98c-2.08,0.2-2.15,0.24-0.22,0.14
				c1.5,0.03,3-0.03,4.51,0.03c1.01,0.04,2.01,0.1,3.02,0.2c-1.66-0.24-1.89-0.25-0.7-0.02c0.72,0.14,1.44,0.32,2.14,0.54
				c-1.66-0.84-1.64-0.82,0.05,0.06c-2.45-2.18,1.47,2.13-0.85-1.24c1.1,1.59,1.09,3.27,0.59,0.82c0.26,0.86,0.46,1.73,0.61,2.62
				c-0.29-2.12-0.37-2.21-0.25-0.27c-0.11,0.88-0.63,4.99,0.09,1.23c-0.27,1.39-0.58,2.77-0.98,4.13c-0.27,0.89-0.57,1.77-0.9,2.63
				c0.13-0.89,0.56-1.6,1.28-2.13c2.14-0.87,4.28-1.73,6.42-2.6c1.87,0.36,1.83,0.33-0.11-0.1c-1.63-0.52-3.3-0.92-4.92-1.46
				c-1.08-0.36-2.15-0.75-3.22-1.16c1.3,0.59,1.04,0.47-0.78-0.36c-3.08-1.51-6.08-3.13-8.95-5.01c-0.95-0.63-1.89-1.27-2.82-1.94
				c1.19,0.95,1.34,1.05,0.45,0.3c-0.56-0.47-1.1-0.97-1.62-1.5c-1.28-1.41-1.32-1.43-0.12-0.08c0.41,1.71,0.63,2.49,0.07,4.25
				c-2.99,9.36-13.71,6.48-18.17,0.6c5.2,6.85,14.47,11.15,22.58,5.92C316.26,303.8,320.98,292.95,315.4,285.59L315.4,285.59z"/>
		</g>
	</g>
	<g class="st1">
		<g>
			<path class="st2" d="M161.6,285.42c-9.75,4.75-12.74,16.79-10.21,26.6c2.02,7.82,7.43,15.41,13.22,20.88
				c8.61,8.14,21.05,14.69,31.91,6.3c7.58-5.85,12.61-17.44,12.77-26.88c0.18-11.34-7.62-20.93-17.68-25.17
				c-7.7-3.25-16.7-3.59-24.95-2.59c-10.73,1.29-20.09,5.94-24.47,16.34c-4.03,9.54-1.4,21.28,5.96,28.54
				c8.88,8.75,22.77,9.63,33.51,4.03c10.89-5.67,15.52-16.91,16.91-28.43c1-8.27-8.39-17.32-16.5-16.5
				c-10.04,1.02-19.41,4.56-26.21,12.36c-7.26,8.32-12.13,20.48-6.2,30.94c6.43,11.32,22.88,13.84,32.31,4.88
				c4.15-3.94,6.52-9.65,6.39-15.39c-0.17-7.78-4.25-13.14-10.2-17.73c-6.86-5.3-18.78-1.27-22.58,5.92
				c-4.62,8.75-1.41,16.92,5.92,22.58c0.28,0.21,0.55,0.43,0.83,0.64c-1.97-1.97-3.95-3.95-5.92-5.92c-3.47-9,4.24-9.85,23.13-2.54
				c0.57-1.75,0.53-1.72-0.13,0.09c1.01-1.57,0.94-1.61-0.23-0.13c0.45-0.54,0.93-1.05,1.44-1.53c0.86-0.79,0.65-0.68-0.65,0.33
				c0.77-0.54,1.56-1.02,2.39-1.46c-1.82,0.68-1.84,0.71-0.05,0.1c1.89-0.42,1.81-0.46-0.25-0.13c-5.5-5.5-11-11-16.5-16.5
				c0.21-1.59,0.18-1.79-0.1-0.61c-0.35,1.12-0.25,1,0.29-0.36c-0.25,0.44-0.5,0.89-0.75,1.33c0.94-1.09,1-1.21,0.2-0.39
				c-1.84,1.22,1.49-0.71,1.8-0.92c-1.63,0.39-1.81,0.45-0.55,0.18c0.81-0.26,1.63-0.23,2.46,0.09c3.14,0.98,4.75,4.48,4.12,7.52
				c-0.29,1.4-0.96,2.83-1.98,3.87c-0.52,0.68-1.17,1.16-1.95,1.43c-1.17,0.49-0.98,0.49,0.58,0.02c-0.05,0.34-3.18,0.22,0.44,0.04
				c1.25-0.06,2.5-0.09,3.75-0.09c1.65-0.01,3.42-0.08,5.06,0.15c-0.36-0.03-0.72-0.06-1.07-0.09c2.02,0.62,2.15,0.59,0.41-0.09
				c0.42,0.26,0.85,0.51,1.27,0.77c-1.1-0.43-1.81-1.25-2.12-2.46c-1.16-2.04-0.53-2.57-0.94-4.41c-0.55,1.67-0.64,2.02-0.27,1.05
				c0.41-0.98,0.21-0.65-0.58,0.98c-0.27,0.47-0.55,0.95-0.82,1.42c-1.72,2.61-0.97,1.96,2.24-1.94c2.78-0.75,5.55-1.5,8.33-2.25
				c-0.54-0.06-1.08-0.12-1.62-0.18c2.78,0.75,5.55,1.5,8.33,2.25c-0.96-0.49-1.86-1.02-2.77-1.6c-3.77-2.4,1.02,1.06-0.79-0.69
				c-0.72-0.7-1.46-1.38-2.15-2.11c-0.44-0.47-2.41-3.1-0.76-0.73c-1.14-1.64-2.22-3.36-3.08-5.17c0.28,0.59,0.55,1.18,0.83,1.77
				c-0.34-1.51-0.37-1.55-0.1-0.14c-0.09,4.02,0.59,7.5-5,10.23c7.78-3.79,10.5-15.48,5.92-22.58
				C179.03,283.36,169.92,281.36,161.6,285.42L161.6,285.42z"/>
		</g>
	</g>
	<g class="st1">
		<g>
			<path class="st2" d="M183.52,495.76c-19.14-4.4-33.43,14.1-27.14,32.02c4.46,12.71,17.11,20.84,30.44,20.8
				c30.13-0.1,40.67-43.02,14.68-57.63c-14.75-8.29-33.03-0.65-37.1,15.84c-1.46,5.91-2.03,12.64-0.34,18.57
				c2.83,9.95,12.77,16.09,22.85,14.73c15.46-2.08,29.63-21.42,21.11-36.27c-4-6.97-11.57-10.86-19.5-10.97
				c-8.95-0.12-16.67,5.81-21.06,13.21c-4.42,7.45-6.89,17.52-2.34,25.48c5.43,9.47,17.49,13.06,27.11,7.64
				c7.84-4.42,12.47-12.17,13.15-21.07c0.91-11.87-9.04-21.96-20.75-21.84c-8.63,0.09-16.9,7.52-16.5,16.5
				c0.4,8.86,7.25,16.6,16.5,16.5c0.43,0,0.87-0.01,1.3-0.01c-2.78-0.75-5.55-1.5-8.33-2.25c-5.08-4.48-6.52-9-4.33-13.56
				c2.73-4.05,6.73-5.51,11.99-4.38c2.43,1.41,4.85,2.83,7.28,4.24c0.97,3.46,1.94,6.92,2.91,10.38c0.15-0.43,0.3-0.86,0.46-1.29
				c0.15,0.08-1.23,2.91,0.4-0.24c0.5-0.79,0.47-0.75-0.09,0.13c-0.75,1.45-2.11,2.16-4.07,2.13c-1.96,1.64-3.99,1.88-6.09,0.74
				c-3.74-0.57-6.33-2.91-7.77-7.02c0-2.92,0-5.85,0-8.77c-0.32,1.81-0.21,1.68,0.34-0.37c1.15-1.38,1.32-1.61,0.51-0.69
				c-0.46,0.54-0.97,1.03-1.5,1.5c5.23-5.28,11.36-2.41,18.39,8.63c0.17-0.9,0.61-5.03-0.18-0.9c0.09-0.66,0.22-1.3,0.4-1.94
				c0.34-1.18,0.15-0.87-0.57,0.92c-1.78,1.98-4.16,3.9-6.95,3.94c-1.15,0.1-2.23-0.12-3.25-0.67c-1.3-1.13-1.56-1.31-0.78-0.52
				c0.83,0.89,0.56,0.57-0.8-0.97c-0.77-2.18-0.87-2.4-0.3-0.67c0.73,3.19,0.43-3.18-0.03,0.35c0.57-4.43-0.03-0.6-0.24,0.33
				c0.96-2.08,1.01-2.31,0.16-0.71c0.39-0.48,0.78-0.96,1.17-1.44c-1.29,1.24-1.08,1.15,0.62-0.27c-1.34,0.72-1.4,0.78-0.18,0.19
				c1.24-0.51,1.15-0.55-0.29-0.13c2.43-0.28,2.71-0.39,0.84-0.35c2.59,0.2,1.87,0.16-0.3-0.36c1.89,0.85,2.3,0.98,1.23,0.39
				c-1.03-0.63-0.73-0.35,0.91,0.85c-2.05-2.69,0.61,2.69-0.41-0.31c2.16,6.41-3.51,13.47-12.33,11.45
				c8.39,1.93,18.26-2.58,20.3-11.52C196.96,507.65,192.52,497.83,183.52,495.76L183.52,495.76z"/>
		</g>
	</g>
	<g class="st1">
		<g>
			<path class="st2" d="M153.27,413.96c-7.56-2.88-15.38-4.25-23.43-4.92c-6.45-0.54-12.74,4.59-15.08,10.14
				c-2.6,6.15-1.23,13.17,3.41,18.02c6.83,7.15,14.99,11.95,24.14,15.49c6.48,2.5,15.48-1.62,18.63-7.58
				c3.72-7.03,2.19-13.98-2.58-20c-3.96-5-7.92-10-11.89-15c-4.2-5.3-14.52-6.38-20-2.58c-5.95,4.13-10.37,10.39-9.93,17.97
				c0.41,7.11,3.84,14.5,10.42,17.96c14.59,7.68,33.27-3.73,32.26-20.51c-0.53-8.83-6.4-16.66-15.23-18.57
				c-8.08-1.75-16.07,1.14-21.08,7.64c-5.46,7.06-5.39,16.34-1.53,24.11c2.68,5.4,7.67,9.16,12.69,12.23c5,3.06,11.64,2.93,16.66,0
				c5.42-3.17,7.55-8.29,8.17-14.25c0.11-1.1,0.23-2.2,0.34-3.3c0.9-8.61-8.23-16.87-16.5-16.5c-9.71,0.43-15.54,7.27-16.5,16.5
				c-0.11,1.1-0.23,2.2-0.34,3.3c8.28-4.75,16.55-9.5,24.83-14.25c-0.79-0.48-1.55-1.02-2.35-1.49c-1.74-1.04,2.9,2.57,0.4,0.09
				c1.7,1.69,2.42,4.3,2.72,6.64c-0.98,7.54-4.56,11.08-10.75,10.63c-2.53,1.04-4.95,0.94-7.24-0.29c-1.97-1.97-3.95-3.95-5.92-5.92
				c-1.75-3.9-1.74-7.54,0.03-10.91c2.83-4.52,7.08-6.19,12.75-5.01c11.6,2.96,11.28,16.51,2.75,22.42
				c-6.67-0.86-13.33-1.72-20-2.58c3.96,5,7.92,10,11.89,15c5.35-9.19,10.7-18.39,16.05-27.58c-1.73-0.67-1.59-0.61,0.41,0.18
				c-0.77-0.37-1.53-0.75-2.28-1.16c-1.12-0.62-2.18-1.33-3.28-1.99c-3.45-2.06,2.25,2.19-0.74-0.5c-1.27-1.14-2.51-2.3-3.69-3.53
				c-3.89,9.39-7.78,18.78-11.67,28.17c1.48,0.12,4.09,0.02,1.18,0.06c1.53-0.02,3.32,0.61,4.81,0.96c2.96,0.71,5.83,1.64,8.68,2.72
				c8.08,3.08,18.45-3.4,20.3-11.52C166.94,424.84,161.92,417.25,153.27,413.96L153.27,413.96z"/>
		</g>
	</g>
	<g class="st1">
		<g>
			<path class="st2" d="M52.45,305.29c-9.87-3.93-20.57-5.71-31.19-5.65C7.92,299.73,1.8,313.39,7.01,324.47
				c2.2,4.67,6.79,7.76,11.53,9.41c0.93,0.32,1.81,0.62,2.78,0.84c5.39,1.26-2.36,1.36-5.39-4.92c-0.75-2.78-1.5-5.55-2.25-8.33
				c1.99-5.17,2.23-6.38,0.71-3.63c3.86-6.42,10.62-5,20.28,4.24c0,2.92,0,5.85,0,8.77c-0.32,0.72-0.65,1.45-0.97,2.17
				c10.24-15.79-12.96-33.39-25.91-20c-9.28,9.6-8.9,25.35,0.95,34.49c4.77,4.42,10.65,6.74,17,7.59c2.63,0.35,5.16,0.56,7.81,0.55
				c1.15,0,2.3-0.04,3.45-0.03c0.5,0,4.13,0.29,1.59-0.12c6,0.95,11.54,0.27,16.05-4.24c4.16-4.16,5.81-10.38,4.24-16.05
				c-1.07-3.86-3.1-7.87-6.32-10.39c-6.78-5.3-16.81-7.11-23.33,0c-5.44,5.93-7.26,17.66,0,23.33c-0.72-1.39-1.44-2.78-2.17-4.17
				c6.77-6.77,13.53-13.53,20.3-20.3c-5.61-0.89-11.46-1.46-17.15-1.08c-2.25,0.15,2.03,0.59-0.12-0.06
				c-1.75-0.53,0.58,0.39,0.94,0.74c3.5,3.48,3.77,9.27,0.09,13.07c-8.64-6.67-17.28-13.33-25.91-20
				c-6.06,9.34-1.98,21.07,6.6,27.03c8.73,6.07,20,3.18,27.14-3.84c6.93-6.81,10.38-17.97,5.29-26.82
				c-2.57-4.46-6.55-7.35-11.36-9.01c-0.94-0.33-1.8-0.61-2.78-0.84c-5.4-1.24,2.43-1.43,5.42,4.92
				c-4.75,8.28-9.5,16.55-14.25,24.83c8.71-0.05,13.61,0.96,22.42,4.47c8.04,3.2,18.47-3.49,20.3-11.52
				C66.14,316.06,61.06,308.72,52.45,305.29L52.45,305.29z"/>
		</g>
	</g>
	<g class="st1">
		<g>
			<path class="st2" d="M502.47,228.38c0-0.21-0.14-4.59,0.08-4.62c0.1,0.95-0.13,1.81-0.69,2.58c-0.98,0.92-1.95,1.85-2.93,2.77
				c-0.85,0.47-4.67,0.47-1.32,0.46c-2.9,0.02,1.02,0.43,1.92,0.75c-2.57-0.91,2.21,1.12,2.18,1.11c6.63,2.3-6.44-15.62-0.94-16.68
				c-3.13,0.6-6.99,4.15-9.78,5.79c-1.67,0.99-3.33,2-5.02,2.96c-0.44,0.26-0.88,0.51-1.32,0.77c-1.73,0.91-1.8,0.96-0.23,0.17
				c2.37,0.04,5.18-0.45,7.04,1.43c2.64,2.67,2.74,6.03,1.56,9.36c0.25-0.43,0.49-0.85,0.74-1.28c-1.09,1.32-0.99,1.28,0.29-0.14
				c1.03-0.85,1.98-1.78,3.02-2.62c2.84-2.31,5.62-4.43,7.93-7.29c-9.19-2.43-18.39-4.85-27.58-7.28c1.5,4.72,3.05,9.48,3.87,14.38
				c-0.09-1.35-0.06-0.99,0.12,1.08c0.09,1.21,0.12,2.41,0.09,3.62c-0.15,2.07-0.14,2.4,0.01,0.98c-0.24,1.19-0.55,2.36-0.94,3.51
				c-4.79,15.74,16.26,27.85,27.58,16.05c4.09-4.27,8.18-8.53,12.27-12.8c5.98-6.23,6.66-17.22,0-23.33
				c-6.47-5.94-16.95-6.66-23.33,0c-4.09,4.27-8.18,8.53-12.27,12.8c9.19,5.35,18.39,10.7,27.58,16.05
				c4.19-13.77,1.08-27.79-3.15-41.12c-3.41-10.74-19.31-17.5-27.58-7.28c-5.01,6.2-12.17,9.69-16.4,16.72
				c-5.39,8.97-5.86,20.64,0.7,29.13c6.46,8.36,16.68,12.68,27.21,9.84c8.05-2.18,15.78-7.85,22.81-12.16
				c9.44-5.78,16.9-15.3,13.89-27.05c-2.65-10.33-12.21-15.35-21.59-18.55c-8.99-3.06-19.25-2.47-27.18,2.99
				c-9.06,6.23-11.81,16.38-11.66,26.9c0.13,8.63,7.5,16.9,16.5,16.5C494.8,244.48,502.61,237.63,502.47,228.38L502.47,228.38z"/>
		</g>
	</g>
	<g class="st1">
		<g>
			<path class="st2" d="M565.29,310.31c1.85-1.82,5.06-4.74,6.17-5.56c0.63-0.46,4.52-3.05,6.37-3.97c-2.78,0.75-5.55,1.5-8.33,2.25
				c0.3-0.03,0.6-0.07,0.9-0.1c-2.78-0.75-5.55-1.5-8.33-2.25c0.27,0.15,0.53,0.3,0.8,0.45c-1.97-1.97-3.95-3.95-5.92-5.92
				c-1-1.6-0.82-2.96-0.42-0.33c0.11,0.61,0.23,1.22,0.34,1.83c-0.13-1-0.14-0.93-0.03,0.23c0.21,2.8,0.16,5.57-0.04,8.37
				c2.72-4.75,5.45-9.5,8.17-14.25c-1.88,1.28-3.79,2.49-5.79,3.58c-1,0.54-2.01,1.05-3.04,1.53c1.35-0.51,1.09-0.4-0.77,0.31
				c-6.61,2.54-12.46,8.21-12.11,15.91c0.33,7.35,4.9,13.82,12.11,15.91c-3.9-2.83-4.79-3.28-2.68-1.34
				c0.32,0.35,0.63,0.69,0.95,1.04c1.74,1.81,3.11,3.06,5.32,4.6c3.8,2.65,8.44,4.26,13.12,3.97c13.03-0.79,21.49-12.49,18.56-25.03
				c-1.97-8.41-12.05-14.19-20.3-11.52c-8.78,2.84-13.63,11.28-11.52,20.3c0.08,0.35,0.16,0.7,0.25,1.05c0-2.92,0-5.85,0-8.77
				c0.81-1.54,1.63-3.09,2.44-4.63c2.43-1.41,4.85-2.83,7.28-4.24c2.65,0.41,5.29,0.82,7.94,1.23c1.32,0.98,1.56,1.06,0.73,0.24
				c-0.46-0.85-1.77-1.94-2.44-2.55c-3.17-2.89-6.76-4.96-10.87-6.15c0,10.61,0,21.21,0,31.82c7.76-2.99,18.96-7.07,23.4-14.66
				c4.5-7.69,2.67-21.18,0.39-29.35c-3.45-12.35-16.44-17.62-27.61-11.59c-6.73,3.63-12.96,8.92-18.38,14.27
				c-6.15,6.07-6.54,17.33,0,23.33C548.58,316.39,558.72,316.79,565.29,310.31L565.29,310.31z"/>
		</g>
	</g>
	<g class="st1">
		<g>
			<path class="st2" d="M440.31,307.09c-8.67,1.31-14.9,10.82-14.61,19.21c0.33,9.68,7.52,17.6,17.08,18.89
				c8.98,1.21,16.53-2.96,21.77-10.09c1.39-1.89,2.46-3.94,3.45-6.07c0.81-1.73,0.98-0.79-0.14-0.23c-2.42,2.34-5.18,2.89-8.27,1.64
				c-4.32-1.28-5.47-1.25-3.45,0.07c-1.97-1.97-3.95-3.95-5.92-5.92c-0.23-0.72-0.46-1.45-0.69-2.17
				c8.08-6.21,16.16-12.42,24.24-18.63c-13.76-9.26-36.57-9.4-45.61,6.64c-4.87,8.65-4.13,20.96,3.53,27.87
				c7.91,7.14,19.23,7.89,28.13,2.16c8.46-5.45,12.87-16.96,10.34-26.74c-3.1-11.96-16.52-18.27-27.41-11.53
				c-8.06,4.98-11.42,15.4-11.07,24.48c0.43,11.26,7.54,20.43,18.18,23.86c8.82,2.85,17.55-3.36,20.3-11.52
				c5.69-16.94,4.35-46.04-20.06-45.14c-19.55,0.72-32.71,27.93-23.2,44.4c8.44,14.61,32.97,19.47,46.26,9.2
				c8.71-6.73,12.45-18.64,8.08-28.98c-4.07-9.65-13.26-16.02-23.93-15.72c-8.62,0.24-16.91,7.41-16.5,16.5
				c0.39,8.73,7.26,16.76,16.5,16.5c2.04,0.06,1.65-0.17-1.16-0.68c-1.54-0.04-2.78-0.64-3.73-1.8c-2.21-2.05-2.48-5.09-1.67-7.81
				c0.6-2.02,1.28-3.47,3.12-4.6c0.86-0.62,1.8-0.91,2.83-0.89c1.43-0.11,1.36-0.12-0.2-0.04c-0.42-0.01-0.83-0.02-1.25-0.04
				c2.07,0.34,2.48,0.39,1.23,0.14c-1.01-0.32-2.08-0.56-3.11-0.84c-1.46-0.54-1.59-0.58-0.4-0.1c1.19,0.52,1.06,0.42-0.38-0.29
				c1.72,1.73,3.66,3.32,3.97,6.01c0.1,0.86-0.55,4.49,0.18,1.5c0.71-2.9-0.86,1.06,0.08-0.39c0.1-0.15,1.58-2.8,1.6-2.79
				c-0.39,0.79-0.96,1.4-1.71,1.83c-4.99,3.88-10.58,1.62-16.78-6.79c1.06,2.44,0.27-1.58,0.1,0.51c-0.11,1.39,0.06,2.85,0.03,4.26
				c-0.1,4.49,0.77-2-0.31,2.36c-0.41,1.66-0.87,3.28-1.42,4.91c6.77-3.84,13.53-7.68,20.3-11.52c4.28,1.38,4.51,3.21,6.01,6.45
				c-0.34,1.85-0.29,1.8,0.13-0.15c-0.99,2.13-2.5,3.86-4.54,5.2c-2.78,0.75-5.55,1.5-8.33,2.25c0.28-0.03,0.56-0.07,0.84-0.1
				c-2.78-0.75-5.55-1.5-8.33-2.25c0.26,0.14,0.53,0.27,0.79,0.41c-1.97-1.97-3.95-3.95-5.92-5.92c-3.78-6.15,0.55-12.87,7.53-13.17
				c3.6,2.67,7.19,5.33,10.79,8c0.73,2.25,0.64,4.33-0.29,6.26c-1.13,2.31-3.02,3.78-5.23,4.86c1.72-0.84,0.93-0.03-0.53-0.12
				c0.18,0.01,4.04,0.35,2.09-0.03c-2.14-0.42,1.76,0.61,2.16,0.77c-2.65-1.06,0.57,0.63,1.33,1.14
				c11.48,7.72,29.22-5.24,24.24-18.63c-4.3-11.55-15.21-17.7-27.3-14.1c-5.88,1.75-10.73,6.42-13.84,11.56
				c-0.74,1.23-1.31,2.55-1.98,3.82c-0.4,0.84-0.86,1.65-1.36,2.43c3.78-4.92,8.59-6.11,14.43-3.57c1.97,1.97,3.95,3.95,5.92,5.92
				c0.02,4.09,0.05,8.18,0.07,12.27c-1.97,1.97-3.95,3.95-5.92,5.92c-0.77,0.34-1.54,0.68-2.3,1.03
				c8.56-1.29,14.04-12.52,11.52-20.3C457.59,309.28,449.49,305.7,440.31,307.09L440.31,307.09z"/>
		</g>
	</g>
	<g class="st1">
		<g>
			<path class="st2" d="M371.67,184.69c0.84-3.63,1.57-7.82,1.25-11.59c0-0.61,0.01-1.22,0.01-1.83c-0.37,1.55-0.43,1.8-0.18,0.74
				c0.59-1.4-1.51,2.18-1.79,2.42c-3.21,0.91-6.43,1.82-9.64,2.73c0.56,0.15,1.12,0.3,1.68,0.45c1.42,0.62,3.18,0.92,4.68,1.35
				c1.56,0.45,3.12,0.9,4.68,1.35c0.62,0.18,1.25,0.36,1.87,0.54c3.59,1.19,2.6,0.46-2.94-2.21c-1.41-2.43-2.83-4.85-4.24-7.28
				c-1.31-4.95-0.51,0.15-0.63,1.93c-0.13,2-0.27,3.99-0.4,5.99c6.96-5.3,13.92-10.61,20.89-15.91c-8.25-1.71-16.64-2.91-25.04-3.49
				c-8.76-0.6-17.45,1.12-23.11,8.44c-7.45,9.65-3.53,22.62,6.24,28.83c6.56,4.17,14.34,7.02,21.74,9.3
				c1.46-10.8,2.92-21.61,4.39-32.41c-2.4-0.29-4.81-0.59-7.21-0.88c-8.6-1.05-16.87,8.34-16.5,16.5c0.44,9.84,7.29,15.37,16.5,16.5
				c2.4,0.29,4.81,0.59,7.21,0.88c8.11,0.99,15.23-7.04,16.21-14.31c1.1-8.2-3.89-15.67-11.82-18.1c-1.75-0.54-3.46-1.12-5.19-1.72
				c-0.57-0.22-1.14-0.43-1.7-0.65c0.86,0.38,0.77,0.34-0.25-0.12c-1.38-0.62-2.7-1.42-4.09-2c-0.53-0.29-1.07-0.58-1.6-0.86
				c1.6,1.55,1.81,1.67,0.65,0.36c1.41,2.43,2.83,4.85,4.24,7.28c0.08,0.76,0.16,1.52,0.24,2.29c-0.75,2.78-1.5,5.55-2.25,8.33
				c-2.22,3.48-5.11,5.2-8.66,5.16c1.03-0.04,2.05-0.01,3.08,0.08c2.21,0.1,4.42,0.3,6.62,0.52c3.24,0.33,6.93,0.95,11.54,1.91
				c10.99,2.27,20.13-4.76,20.89-15.91c0.58-8.59,2.17-18.13-5.02-24.68c-5.81-5.29-15.53-7.26-23.04-9.03
				c-10.32-2.43-20.87,0.36-26.64,9.78c-1.83,2.98-3.13,6.27-3.67,9.72c-0.37,2.37-0.65,4.72-0.69,7.12c-0.01,0.91-0.01,1.83,0,2.74
				c-0.04,2.1-0.06,2.42-0.07,0.98c-1.94,8.39,2.59,18.26,11.52,20.3C359.78,198.13,369.59,193.68,371.67,184.69L371.67,184.69z"/>
		</g>
	</g>
	<g class="st1">
		<g>
			<path class="st2" d="M240.22,185.26c-0.64-4.11-2.56-7.94-4.68-11.49c-0.68-1.14-1.31-2.57-2.16-3.57
				c-0.55-1-0.54-0.98,0.03,0.06c0.49,2.21,0.1,4.17-1.19,5.89c-0.41,1.27-1.16,2.28-2.24,3.03c0.39-0.2,0.79-0.39,1.18-0.59
				c-1.8,0.76-2.01,0.87-0.65,0.33c0.86-0.33,1.72-0.66,2.57-0.99c1.72-0.66,3.43-1.32,5.15-1.98c0.57-0.22,1.14-0.44,1.72-0.66
				c2.41-0.78,2.28-0.9-0.4-0.36c-2.78-0.75-5.55-1.5-8.33-2.25c0.26,0.18,0.51,0.37,0.77,0.55c-1.97-1.97-3.95-3.95-5.92-5.92
				c-0.97-2.74-1.07-2.86-0.32-0.37c0.31,1.19,0.59,2.39,0.82,3.6c0.11,0.61,0.22,1.21,0.33,1.82c-0.18-1.34-0.16-0.97,0.05,1.11
				c0.2,4.34,0.08,8.57-0.48,12.88c5.5-5.5,11-11,16.5-16.5c-2.14,0.11-4.27,0.22-6.41,0.33c-8.25,0.43-15.08,5.95-16.21,14.31
				c-1.18,8.76,4.1,14.9,11.82,18.1c4.72,1.96,9.97,2.7,15.07,2.53c8.62-0.29,16.91-7.38,16.5-16.5c-0.4-8.96-7.25-16.47-16.5-16.5
				c-1.32,0-2.63-0.01-3.95-0.01c-8.63-0.03-16.9,7.61-16.5,16.5c0.4,8.96,7.25,16.47,16.5,16.5c1.32,0,2.63,0.01,3.95,0.01
				c0-11,0-22,0-33c-0.98,0.03-4.59-0.67-1.84,0.13c-1.52-0.45-2.98-0.87-4.45-1.48c-1.46,10.8-2.92,21.61-4.39,32.41
				c2.14-0.11,4.27-0.22,6.41-0.33c9.8-0.51,15.28-7.22,16.5-16.5c1.29-9.8,0.65-20.5-2.4-29.96c-2.58-8.03-8.73-14.17-17.53-14.46
				c-4.93-0.16-9.05,1.8-13.52,3.52c-10.44,4.02-21.29,7.93-24.6,20.02c-1.78,6.52-0.43,13.13,2.36,19.11
				c0.96,2.06,2.11,3.9,3.26,5.85c0.59,0.94,1.14,1.9,1.64,2.89c-0.69-1.41-0.79-1.17-0.29,0.72c1.33,8.56,12.49,14.05,20.3,11.52
				C238.01,202.54,241.64,194.42,240.22,185.26L240.22,185.26z"/>
		</g>
	</g>
	<g class="st1">
		<g>
			<path class="st2" d="M586.27,453.78c7.7-2.25,11.98-2.75,20.77-2.16c-5.3-4.04-10.61-8.08-15.91-12.11
				c0.52,2.65,1.05,5.3,1.57,7.96c0.23,1.18,0.46,2.36,0.7,3.54c0.12,0.59,0.23,1.18,0.35,1.77c0.34,1.67,0.21,1.18-0.39-1.47
				c0.75-2.78,1.5-5.55,2.25-8.33c-0.17,0.26-0.34,0.52-0.51,0.78c1.97-1.97,3.95-3.95,5.92-5.92c0.42-0.24,7.9-1.3,4.35-1.51
				c-1.85-0.11-4.26,0.32-6.04,0.79c-3.67,0.97-7.02,3.06-9.73,5.69c-0.38,0.37-1.49,1.32-1.62,1.82c3.34-0.95,6.68-1.91,10.02-2.86
				c-0.54-0.11-1.08-0.22-1.61-0.33c-0.54-0.13-1.07-0.25-1.61-0.38c-1.74-0.51-2.1-0.62-1.08-0.33c0.89,0.16,1.57,0.7,2.02,1.63
				c1.92,1.4,2.88,3.38,2.87,5.95c-0.11-15.72-23.08-23.31-30.75-8.33c-6.1,11.92-1.02,25.96,11.86,30.45
				c8.08,2.82,17.2,0.7,25.48-0.15c8.56-0.88,16.93-6.96,16.5-16.5c-0.37-8.18-7.3-17.45-16.5-16.5c-3.61,0.37-7.22,0.74-10.83,1.11
				c-1.47,0.15-3,0.2-4.45,0.44c-0.5,0.02-1.01,0.04-1.51,0.07c4.96,0.51,8.18,4,9.65,10.46c-0.75,2.78-1.5,5.55-2.25,8.33
				c0.18-0.35,0.36-0.7,0.54-1.06c-10.25-2.78-20.5-5.55-30.75-8.33c0.08,11.46,7.62,20.04,18.08,23.8
				c9.5,3.42,20.11,3.4,27.64-4.14c4.34-4.34-2.11,1.76-5.94,1.37c1.74,0.18,5.68-0.43,6.62-0.68c5.1-1.34,9.47-4.31,12.11-9.02
				c4.85-8.64,0.63-19.84-1.15-28.89c-1.46-7.4-9.02-11.66-15.91-12.11c-9.9-0.66-20.02,0.56-29.54,3.34
				c-8.28,2.42-14.3,11.73-11.52,20.3C568.7,450.65,577.4,456.37,586.27,453.78L586.27,453.78z"/>
		</g>
	</g>
	<g class="st1">
		<g>
			<path class="st2" d="M542.57,557.29c8.79,10.39,17.59,20.79,26.38,31.18c4.14,4.89,8.1,10.96,14.02,13.83
				c10.91,5.29,24.45,0.2,27.33-12.17c1.57-6.73,1.65-14.25,1.31-21.12c-0.4-8.21-0.83-17.4-6.88-23.65
				c-5.19-5.36-13.24-6.77-20.12-8.85c-3.48-1.05-6.95-2.1-10.43-3.14c-1.58-0.48-3.16-0.95-4.74-1.43
				c-0.63-0.19-1.26-0.38-1.9-0.57c-4.41-1.6-2.35,0.71,6.2,6.92c0,2.92,0,5.85,0,8.77c-0.24,0.6-0.48,1.2-0.73,1.8
				c5.3-6.86,1.27-18.78-5.92-22.58c-8.75-4.62-16.92-1.41-22.58,5.92c-6.91,8.96-2.04,22.35,6.82,27.86
				c5.74,3.57,13.34,4.91,19.74,6.84c3.16,0.95,6.32,1.9,9.48,2.86c1.34,0.4,3.32,1.48,4.74,1.43c-4.55-1.72-6.95-4.43-7.2-8.13
				c-0.13-1.25-0.08-0.84,0.14,1.25c0.3,3.13,0.47,6.27,0.46,9.41c0,1.89-0.06,3.77-0.18,5.65c-0.04,0.63-0.09,1.25-0.13,1.88
				c-0.39,3.15-0.12,2.52,0.81-1.89c1.97-1.97,3.95-3.95,5.92-5.92c-0.35,0.16-0.7,0.31-1.04,0.47c2.78-0.75,5.55-1.5,8.33-2.25
				c-0.38-0.04-0.76-0.08-1.13-0.12c2.78,0.75,5.55,1.5,8.33,2.25c1.43,1.52,1.49,1.6,0.2,0.24c-0.84-0.99-1.68-1.98-2.51-2.97
				c-1.26-1.48-2.51-2.97-3.77-4.45c-3.14-3.71-6.28-7.42-9.42-11.14c-6.07-7.18-12.15-14.35-18.22-21.53
				c-5.6-6.61-17.65-6.19-23.33,0C536.11,540.99,536.6,550.23,542.57,557.29L542.57,557.29z"/>
		</g>
	</g>
	<g class="st1">
		<g>
			<path class="st2" d="M504.75,653.08c7.65,10.26,16.18,18.87,26.71,26.21c5.07,3.53,10.69,6.93,16.55,8.98
				c8.87,3.1,19.34,0.17,23.91-8.5c2.86-5.43,3.57-12.51,4.52-18.53c1.4-8.82,0.01-17.01-6.49-23.56
				c-10.06-10.15-24.49-14.72-38.3-16.3c-8.61-0.99-16.87,8.3-16.5,16.5c0.44,9.79,7.28,15.44,16.5,16.5
				c-2.93-0.34,1.73,0.41,2.31,0.55c1.65,0.4,3.27,0.91,4.88,1.47c3.1,1.07-0.32-0.52,2.27,1.08c1.53,0.94,3.41,2.46,5.07,3.1
				c0.96,0.68,0.93,0.65-0.11-0.09c-0.61-0.94-1.02-1.97-1.23-3.08c-0.88-2.76-0.27-4.6-0.98-0.91c-0.33,1.69-0.65,3.39-0.98,5.08
				c-0.27,1.38-2.22,6.05-0.12,2.63c1.97-1.97,3.95-3.95,5.92-5.92c-0.34,0.18-0.68,0.37-1.01,0.56c2.78-0.75,5.55-1.5,8.33-2.25
				c2.33-0.11,4.63,1.59,1.1-0.28c-1.43-0.76-2.84-1.56-4.23-2.4c-1.62-0.98-3.21-2.01-4.76-3.09c-0.46-0.32-4.02-3.1-1.84-1.32
				c-2.51-2.05-4.92-4.22-7.21-6.53c-1.14-1.15-2.25-2.34-3.32-3.55c-0.38-0.43-4.11-5.13-2.5-2.97
				c-5.14-6.9-14.51-11.12-22.58-5.92C503.85,634.9,499.24,645.68,504.75,653.08L504.75,653.08z"/>
		</g>
	</g>
	<g class="st1">
		<g>
			<path class="st2" d="M429.24,707.62c-1,11.36,0.1,24.76,5.64,34.95c6.6,12.14,21.18,15.49,33.68,11.58
				c5.07-1.59,11.41-3.92,15.13-7.9c5.86-6.29,6.03-13.94,3.93-21.82c-2.82-10.55-6.31-20.88-10.37-31.01
				c-2.21-5.52-5.49-9.86-11.52-11.52c-5.18-1.43-12.51-0.21-16.05,4.24c-4.41,5.54-8.47,11.15-11.78,17.42
				c6.21-2.53,12.42-5.06,18.63-7.58c0.63,0.25,3.14,2.16,1.86,0.86c-1.58-1.6,1.6,2.89-0.28-0.74c-3.21-6.2-11.99-9.73-18.63-7.58
				c-6.52,2.11-12.73,8.54-12.11,15.91c0.9,10.71,1.12,21.44,0.67,32.18c11,0,22,0,33,0c0.03-1.97,0.06-3.94,0.09-5.91
				c0.13-8.63-7.68-16.89-16.5-16.5c-9.05,0.41-16.36,7.25-16.5,16.5c-0.03,1.97-0.06,3.94-0.09,5.91
				c-0.13,8.63,7.68,16.89,16.5,16.5c9.25-0.41,16.11-7.25,16.5-16.5c0.45-10.74,0.23-21.47-0.67-32.18
				c-10.25,2.78-20.5,5.55-30.75,8.33c3.93,7.58,10.4,12.01,18.15,15.05c6.46,2.54,15.5-1.64,18.63-7.58
				c1.18-2.24,2.42-4.44,3.78-6.57c0.61-0.95,1.23-1.88,1.87-2.8c0.23-0.33,2.38-3.14,0.97-1.37c-9.19-2.43-18.39-4.85-27.58-7.28
				c2.32,5.79,4.47,11.64,6.4,17.57c0.87,2.67,1.69,5.35,2.47,8.04c0.43,1.5,0.86,3,1.26,4.5c0.16,0.6,0.32,1.2,0.48,1.81
				c0.63,2.56,0.63,2.41,0.03-0.45c0.75-2.78,1.5-5.55,2.25-8.33c4.22-3.6,4.96-4.66,2.25-3.18c0.43-0.18,0.86-0.36,1.28-0.54
				c-1.37,0.5-2.75,0.89-4.15,1.3c2.07-0.15,2.16-0.17,0.27-0.06c0.6,0.11,1.19,0.22,1.79,0.34c0.54,0.38,3.54,3.22,3.89,3.3
				c0.45,1.04,0.39,0.74-0.16-0.88c-0.25-0.91-0.48-1.82-0.67-2.74c-0.21-0.92-0.4-1.84-0.56-2.76c0.08,0.98,0.07,0.88-0.04-0.27
				c-0.45-4.06-0.33-8.15,0.03-12.2c0.76-8.62-8.13-16.87-16.5-16.5C436.15,691.55,430.06,698.38,429.24,707.62L429.24,707.62z"/>
		</g>
	</g>
	<g class="st1">
		<g>
			<path class="st2" d="M328.42,733.83c0.06,6.43,0.36,12.85,1,19.25c0.78,7.82,1.2,15.99,7.55,21.57
				c10.67,9.37,34.38,11.56,43.77-0.59c4.63-5.99,4.49-15.71,4.76-23.12c0.23-6.57,0.22-13.6-1.61-19.96
				c-4.42-15.45-23.02-26.21-37.65-16.49c-7.18,4.77-10.94,14.79-5.92,22.58c4.61,7.16,14.89,11.03,22.58,5.92
				c-1.67,1.11-5.85,0.87-7.54,0.15c-1.27-0.54-1.81-1.72-2.85-2.38c-0.15-0.33-0.29-0.67-0.44-1c0.37,1.76,0.48,2.09,0.34,0.98
				c-0.33-1.66,0.12,2.67,0.12,2.68c0.09,2.82,0.05,5.65-0.07,8.47c-0.07,1.57-0.17,3.13-0.3,4.7c-0.04,0.43-0.59,5.24-0.28,3.09
				c2.53-3.29,5.06-6.57,7.58-9.86c1.05-0.55,4.3-0.39,1.09-0.54c-2.95-0.14,0.57,0.48-1.05-0.18c-0.97-0.39-2.73-0.99-3.81-0.99
				c4.37,1.76,6.73,4.47,7.08,8.14c0.17,1.3,0.12,0.89-0.13-1.25c-0.72-7.05-1.14-14.09-1.2-21.17c-0.08-8.63-7.53-16.9-16.5-16.5
				C336.05,717.73,328.34,724.59,328.42,733.83L328.42,733.83z"/>
		</g>
	</g>
	<g class="st1">
		<g>
			<path class="st2" d="M205.41,710.64c-5.79,5.53-10.81,11.75-15.33,18.35c-5.23,7.65-1.09,17.94,5.92,22.58
				c4.15,2.75,8.45,5.13,13,7.14c6.35,2.81,13.92,6.52,21.03,5.56c16.92-2.27,19.61-21.71,18.01-35.76
				c-1.3-11.43-9.44-17.78-20.89-15.91c1.59-0.26-3.29,0.12-3.29,0.12c-0.48,0-5.1-0.45-3.29-0.15c3.29,2.53,6.57,5.06,9.86,7.58
				c-0.15-0.35-0.29-0.7-0.44-1.05c0.75,2.78,1.5,5.55,2.25,8.33c0.05-0.37,0.09-0.75,0.14-1.12c-0.75,2.78-1.5,5.55-2.25,8.33
				c1.47-2.97-1.73,1.37,0.61-0.79c2.38-2.21,4.27-5.98,5.13-9.04c2.01-7.17-0.37-12.98-4.83-18.63c-5.38-6.8-17.79-6.04-23.33,0
				c-6.63,7.22-5.74,16.08,0,23.33c0.23,0.29,0.46,0.58,0.69,0.87c-1.61-3.89-3.22-7.78-4.83-11.67c3.97-7.08,4.65-9.17,2.04-6.28
				c-0.86,1.11-1.72,2.23-2.58,3.34c-1.36,1.91-2.39,3.77-3.05,6.15c-1.68,6.1-0.24,13.83,4.55,18.22
				c8.07,7.41,21.43,5.91,31.41,4.28c-6.96-5.3-13.92-10.61-20.89-15.91c0.32,2.85,0.46,5.66,0.31,8.53
				c-0.15,2.99,0.39-1.68-0.1,1.27c-0.23,1.4-0.59,2.75-1.06,4.09c1.41-2.43,2.83-4.85,4.24-7.28c-0.29,0.33-0.57,0.66-0.86,1
				c2.43-1.41,4.85-2.83,7.28-4.24c-0.47,0.1-0.94,0.19-1.41,0.29c2.92,0,5.85,0,8.77,0c-2.22-0.46-4.32-1.23-6.46-1.97
				c-2.89-1,0.47,0.42-2.5-1.05c-3.67-1.82-7.2-3.8-10.61-6.06c1.97,7.53,3.95,15.05,5.92,22.58c1.94-2.84,1.62-2.53,3.95-5.21
				c1.96-2.26,4.06-4.39,6.22-6.46c6.25-5.97,6.46-17.4,0-23.33C222.04,704.47,212.09,704.26,205.41,710.64L205.41,710.64z"/>
		</g>
	</g>
	<g class="st1">
		<g>
			<path class="st2" d="M119.05,662.74c-13.91,5.81-29.3,16.27-29.79,33.05c-0.21,7.09,3.11,14.09,8.28,18.85
				c2.24,2.06,4.86,3.93,7.39,5.65c1.5,1.01-2.3-2.7-0.34-0.14c-0.41-0.58-0.82-1.17-1.23-1.75c0.88,1.52,0.72,1.16-0.48-1.09
				c2.53,9.96,15.37,15.64,24.24,9.86c7.76-5.05,15.2-10.62,22.27-16.6c7.21-6.09,15.72-12.7,17.86-22.31
				c2.63-11.78-5.6-22.34-15.25-28.09c-5.41-3.23-12.05-4.47-18.2-2.87c-2.15,0.56-4.25,1.62-6.12,2.8c-1.46,1.1-2.9,2.22-4.32,3.37
				c4.28-3.64,9.55-3.25,15.83,1.16c-5.49-6.71-17.72-6.12-23.33,0c-6.54,7.13-5.86,16.18,0,23.33c5.87,7.17,17.44,7.72,25.05,3.25
				c1.66-0.98,3.41-2.28,4.82-3.59c4.23-3.92-10.43,3.76-9.74,1.27c-1.08-0.46-0.87-0.25,0.63,0.61c-0.36-0.26-0.72-0.52-1.07-0.77
				c1.13,1.21,1.36,1.34,0.67,0.39c-2.11-3.03-2.08-6.63,0.06-10.81c0.16-0.29,0.32-0.58,0.48-0.87c-0.64,0.64-1.29,1.27-1.95,1.9
				c-1.09,1.05-2.19,2.08-3.3,3.11c-2.23,2.04-4.51,4.03-6.83,5.96c-3.79,3.14-8.81,6.76-14.2,10.27
				c8.08,3.29,16.16,6.57,24.24,9.86c-1.21-4.75-3.93-9.17-7.57-12.45c-1.58-1.43-3.37-2.69-5.08-3.96
				c-0.61-0.45-1.23-0.89-1.84-1.33c-1.45-1.06-1.23-0.89,0.67,0.51c-1.25-1.27-1.11-0.96,0.42,0.94c1.01,2.04,1.2,4.2,0.59,6.5
				c-0.2,0.39-0.4,0.77-0.59,1.16c1.02-1.61,1.06-1.76,0.13-0.43c0.73-0.78,1.49-1.52,2.3-2.22c-1.19,0.8-0.98,0.64,0.64-0.48
				c0.52-0.34,5.78-3.18,3.46-2.21c7.93-3.31,14.51-11.07,11.52-20.3C136.88,666.64,127.58,659.18,119.05,662.74L119.05,662.74z"/>
		</g>
	</g>
	<g class="st1">
		<g>
			<path class="st2" d="M-1.48,577.72c-2.08,15.66,6.64,32.32,24.18,32.26c7.16-0.02,14.9-1.92,21.89-3.46
				c7.27-1.6,14.76-3.39,21.63-6.29c17.4-7.34,13.27-32.83,0.8-43.26c-14.76-12.35-33.48-2.05-49.13,3.25
				c4.24,10.05,8.48,20.11,12.71,30.16c1.26-0.68,2.51-1.37,3.77-2.05c7.59-4.13,10.65-15.24,5.92-22.58
				c-4.96-7.7-14.46-10.34-22.58-5.92c-1.26,0.68-2.51,1.37-3.77,2.05c-16.17,8.8-5.21,36.24,12.71,30.16
				c3.75-1.27,7.51-2.54,11.26-3.82c1.88-0.64,3.75-1.27,5.63-1.91c1.69-0.57,5.2-1.04,6.53-2.2c1.14-0.21,1.2-0.35,0.2-0.42
				c-1.34-0.01-2.52-0.49-3.54-1.43c-2.36-1.62-2.82-1.76-1.37-0.41c-1.22-1.62-1.53-1.9-0.91-0.84c0.55,1.06,0.42,0.72-0.39-1.04
				c0.22,0.61,0.41,1.23,0.58,1.86c0.18,0.62,0.34,1.25,0.48,1.89c0.52,2.88,0.58,1.64,0.16-3.7c2.53-3.29,5.06-6.57,7.58-9.86
				c1.42-0.56,1.11-0.48-0.93,0.22c-1.18,0.37-2.36,0.73-3.55,1.08c-2.37,0.7-4.76,1.35-7.16,1.95c-4.5,1.13-9.04,2.09-13.61,2.88
				c-0.91,0.16-1.83,0.31-2.75,0.46c-2.2,0.33-2.45,0.37-0.73,0.13c-2.99,0.01-1.98,0.5,3.02,1.47c1.21,0.74,2.22,1.68,3.05,2.83
				c0.91,2.24,1.12,2.46,0.63,0.68c0.3,2.38,0.39,2.63,0.29,0.72c0.19-1.61,0.17-3.26,0.38-4.88c1.14-8.59-8.4-16.86-16.5-16.5
				C5.11,561.66-0.26,568.51-1.48,577.72L-1.48,577.72z"/>
		</g>
	</g>
	<g class="st1">
		<g>
			<path class="st2" d="M2.02,470.4c9.68,1.81,20.29,5.1,30.14,5.02c16.11-0.13,25.74-16.55,18.48-30.65
				c-6.58-12.78-26.63-9.32-30.16,3.94c-1.76,6.61-3.52,13.21-5.28,19.82c9.19-2.43,18.39-4.85,27.58-7.28
				c-4.55-5.37-11.87-8.64-18.87-8.81c-2.92-0.07-6.07,0.17-8.87,1.08c-1.72,0.56-3.51,1.37-5.13,2.19c-0.67,0.39-1.33,0.77-2,1.15
				c-1.1,0.65-0.92,0.5,0.54-0.47c2.92,0,5.85,0,8.77,0c-0.44-0.12-0.88-0.24-1.32-0.35c2.43,1.41,4.85,2.83,7.28,4.24
				c2.06,4.75,2.77,5.73,2.12,2.94c0.18,1.54,0.17,1.29-0.03-0.75c0.1-2.04,0-2.28-0.3-0.72c0.52-1.78,0.43-1.67-0.27,0.31
				c-0.77,0.64-7.98,6.77-9.07,3.48c1.08,0.24,2.15,0.56,3.18,0.96c-5.13-11.46-7.65-14.36-7.58-8.7c-0.18,1.98-0.13,2.04,0.15,0.19
				c-0.16,1-0.39,1.98-0.7,2.94c-0.75-0.3,2.81-3.43,2.9-3.49c-1.61,0.9-1.43,0.89,0.52-0.03c-1.85,0.44-1.64,0.45,0.64,0.03
				c-1.9-0.07-1.69-0.03,0.64,0.13c1.96,0.96,2.14,0.98,0.54,0.04c-4.24,10.05-8.48,20.11-12.71,30.16
				c4.02,1.21,8.06,2.15,12.21,2.83c8.48,1.4,18.18-2.21,20.3-11.52c1.81-7.96-2.42-18.79-11.52-20.3
				c-4.15-0.69-8.18-1.62-12.21-2.83c-7.89-2.37-16.37,2.21-19.47,9.55c-3.23,7.64-0.28,16.21,6.75,20.6
				c13.87,8.66,33.51,3.57,41.04-11.05c3.65-7.1,5.34-17.27,3.32-25.08c-2.48-9.6-11.49-15-20.84-16.47
				C12.29,431.83,3,435.5-3.08,444.33c-5.33,7.74-5.05,17.1-3.7,25.96c1.55,10.25,8.87,18.04,19.61,18.52
				c3.35,0.15,6.74-1.11,9.68-2.47c0.83-0.38,3.54-1.33,4.05-2.13c-0.82,1.27-3.96,1.29-5.11,1c-1.07-0.27-4.02-3.01-2-0.63
				c8.17,9.65,24.57,4,27.58-7.28c1.76-6.61,3.52-13.21,5.28-19.82c-10.05,1.31-20.11,2.63-30.16,3.94
				c0.16,0.31,0.32,0.61,0.47,0.92c-0.75-2.78-1.5-5.55-2.25-8.33c2.33-8.73,6.36-12.52,12.11-11.39c-1.2-0.22-2.41-0.45-3.61-0.67
				c-1.81-0.34-3.61-0.67-5.42-1.01c-4.22-0.79-8.43-1.57-12.65-2.36C2.34,437-7.41,440.91-9.5,450.1
				C-11.35,458.21-7.05,468.7,2.02,470.4L2.02,470.4z"/>
		</g>
	</g>
	<g class="st1">
		<g>
			<path class="st2" d="M351.46,528.17c-13.52-1.85-25.99,2.14-33.94,13.78c-7.69,11.26-6.13,26.8,4.59,35.46
				c10.09,8.14,22.88,13.82,36.03,10.52c12.73-3.2,22.29-13.93,22.67-27.27c0.43-14.9-11.54-26.58-25.84-27.98
				c-15.21-1.49-30.91,13.59-25.57,29.27c4.96,14.54,21.44,18.45,34.34,12.07c10.87-5.38,17.69-19.23,14.48-31.06
				c-4.33-15.99-20.92-18.78-35.14-17.37c-7.87,0.78-15.73,1.94-21.72,7.65c-7.58,7.22-7.88,17.12-3.87,26.16
				c3.51,7.92,15.66,10.38,22.58,5.92c8.2-5.28,9.68-14.1,5.92-22.58c-0.18-0.41-0.36-0.81-0.54-1.22c0.75,2.78,1.5,5.55,2.25,8.33
				c0.05,0.87-4.82,9.62-6.61,9.16c0.62,0.16,2.07-0.45,2.73-0.55c-1.72,0.26,0.63-0.01,1.1-0.04c1.23-0.08,2.45-0.16,3.68-0.19
				c1.23-0.03,2.45,0.01,3.68-0.01c3-0.05,0.16-0.04-0.78-0.48c-2.55-1.19-4-3.65-4.72-6.18c-0.71-1.15-0.91-2.34-0.57-3.56
				c0.23-1.21,0.23-1.36-0.02-0.44c-0.38,1.61,0.88-1.49,0.96-1.74c0.69-0.79,0.72-0.86,0.1-0.19c-0.66,0.64-0.58,0.61,0.23-0.09
				c0.22-0.07,3.47-1.61,1.85-1.1c-0.92,0.22-0.78,0.21,0.41-0.04c1.21-0.38,2.39-0.2,3.54,0.54c4.39,0.43,5.71,3.59,3.95,9.48
				c3.61,5.04,3.48,8.3-0.38,9.79c-1.47,0.85-2.4,1.4-4.07,1.28c-2.01-0.15-3.9-1.4-4.64-3.35c-0.8-2.1,0.03-4.07,1.34-5.7
				c0.85-1.06,2.03-0.92,0.26-0.25c1.31-0.5,2.06-0.61,0.29-0.21c-1.95,0.44-0.84,0.15,0.47-0.05c-1.03,0.15-1.77-0.13-0.27,0.06
				c-0.64-0.08-2.53-0.66-0.84-0.01c-1.04-0.4-2.06-1.03-3.02-1.59c-0.98-0.58-1.94-1.21-2.87-1.87c1.36,0.95,0.47,0.81-0.09-0.14
				c1.09,1.86,2.49,3.62,2.12,6.02c-0.07,0.43-1.07,2.9-0.27,1.37c1.14-2.17-1.4,2.08,0.04,0.13c1.39-1.88-1.74,1.6,0.04,0.15
				c1.79-1.45-2.15,1.03-0.06,0.17c0.95-0.22,0.9-0.22-0.14-0.01c-0.82,0.26-1.63,0.19-2.44-0.2c8.51,1.16,18.14-2.05,20.3-11.52
				C364.75,540.71,360.61,529.42,351.46,528.17L351.46,528.17z"/>
		</g>
	</g>
	<g class="st1">
		<g>
			<path class="st2" d="M461.73,480.86c-13.76-2.53-25.67,5.19-29.31,18.79c-2.92,10.93,1.71,23.56,10.36,30.65
				c9.61,7.88,22.04,10.15,33.37,4.46c9.49-4.77,15.85-15.68,15.9-26.2c0.05-11.92-8.14-21.77-18.27-27.18
				c-12.83-6.84-26.91-2.55-34.57,9.53c-2.96,4.67-5.22,10.29-5.37,15.88c-0.22,8.59,5.44,15.72,13.04,18.92
				c11.46,4.84,25.82,4.56,35.01-4.64c11.66-11.68,7.71-32-8.12-37.4c-14.27-4.87-26.88,5.15-32.41,17.57
				c-3.5,7.87-2.55,18.1,5.92,22.58c7.18,3.8,18.83,2.5,22.58-5.92c0.53-1.18,1.04-2.36,1.65-3.51c0.38-0.72,1.78-2.07,0.82-1.52
				c-1.07,0.61-1.81,1.88-3.18,2.23c-6.41,1.61-14.99-4.56-13.18-12.09c0.49-2.07,1.63-4.45,3.35-5.79
				c1.01-0.79,2.43-0.72,3.33-1.34c-0.68,0.46-2.57-0.4-0.48,0.03c-0.81-0.17-1.61-0.36-2.4-0.57c-3.11-0.92-1.46,0.53,4.95,4.35
				c0.75,2.78,1.5,5.55,2.25,8.33c-0.61,2.1-0.72,2.51-0.33,1.25c0.36-1.13,0.25-0.86-0.35,0.81c0.31-0.65,0.66-1.28,1.05-1.89
				c0.63-1,0.48-0.84-0.47,0.49c-2.22,1.46-8.66,3.96-9.14,1.5c-1.04-0.54-0.8-0.39,0.71,0.44c0.42,0.27,0.83,0.54,1.25,0.81
				c-2.95-1.91,1.38,0.65,1.25,1.28c-0.03,0.14-1.85-4.46-1.87-4.73c0.25,3.08,0.45-2.29,0.03-0.32c-0.37,1.16-0.21,0.77,0.49-1.19
				c-0.82,1.27-0.85,1.36-0.1,0.3c0.81-1.02,0.7-0.98-0.34,0.11c0.47-0.39,0.94-0.77,1.41-1.16c1.98-0.67,2.39-0.83,1.21-0.47
				c-1.18,0.32-0.75,0.28,1.29-0.12c0.59,0.11,1.17,0.23,1.76,0.34c-1.78-0.52-1.71-0.41,0.22,0.35c-0.38-0.22-0.77-0.44-1.15-0.66
				c1.35,1.14,1.59,1.31,0.72,0.5c-1.1-1.27,0.77,2.34-0.32-0.36c0.58,1.72,0.69,2.01,0.32,0.86c-0.33-1.2-0.35-0.84-0.06,1.1
				c0.56-3.28-0.56,1.66-0.79,2.05c-1.97,3.39-7.81,3.93-10.78,3.38c8.46,1.56,18.2-2.32,20.3-11.52
				C475.09,493.07,470.8,482.53,461.73,480.86L461.73,480.86z"/>
		</g>
	</g>
	<g class="st1">
		<g>
			<path class="st2" d="M293.89,424.99c-7.77,6.65-10.05,18.29-7.18,27.84c2.84,9.45,10.43,16.66,19.2,20.74
				c10.39,4.84,22,7.74,32.67,1.87c11.13-6.12,15.64-20.8,9.2-31.87c-4.84-8.32-13.72-16.14-22.91-18.9
				c-10.58-3.18-22.81,1.05-28.9,10.24c-7.14,10.76-3.05,25.78,7.65,32.51c9.75,6.13,22.35,4.66,30.59-3.4
				c8.4-8.21,10.61-21.65,4.86-31.97c-5.86-10.52-18.71-14.77-29.71-10.13c-10.89,4.6-17.56,16.21-14.48,28.01
				c3,11.48,14.91,20.04,26.74,18.45c10.53-1.41,19.5-9.27,21.3-20c2.08-12.37-4.32-24.45-16.65-28.29
				c-10.92-3.4-22.74,0.59-29.13,10.13c-6.59,9.84-4.49,23.5,4.13,31.39c10.16,9.29,23.96,8.81,35.78,3.26
				c14-6.57,17.63-24.41,6.54-35.5c-4.25-4.25-9.47-6.38-14.96-8.47c-4.25-1.62-8.55-3.59-12.94-4.79
				c-8.9-2.44-18.58,1.78-22.19,10.34c-3.25,7.7-0.75,18.85,7.57,22.46c7.9,3.42,18.07,2.6,22.58-5.92
				c3.76-7.11,2.54-18.92-5.92-22.58c-0.22-0.1-0.44-0.19-0.67-0.29c2.53,3.29,5.06,6.57,7.58,9.86c-0.09-0.24-0.19-0.48-0.28-0.72
				c0,2.92,0,5.85,0,8.77c0.04-0.28,0.08-0.56,0.12-0.84c-1.41,2.43-2.83,4.85-4.24,7.28c0.18-0.21,0.36-0.43,0.53-0.64
				c-2.43,1.41-4.85,2.83-7.28,4.24c-5.95-0.47-7.21-0.19-3.77,0.85c0.56,0.21,1.13,0.42,1.69,0.63c1.69,0.63,3.38,1.27,5.07,1.9
				c1.66,0.62,3.47,1.11,5.07,1.9c-1.8-0.76-1.85-0.69-0.15,0.21c-0.38-0.29-0.76-0.57-1.14-0.86c6.63-14.76,6.92-20.31,0.86-16.66
				c0.34-0.15,0.68-0.3,1.02-0.46c-1,0.35-2.02,0.62-3.05,0.81c0.43-0.1,0.85-0.21,1.28-0.31c5.11,1.78,7.32,6.37,4.57,11.88
				c-1.32,2.64-4.45,3.7-7.2,3.84c3.12-0.17-1.58-0.28-2.56-0.77c-4.49-2.23-4.43-6.1-4.24-10.24c-0.51,1.76-0.42,1.57,0.28-0.6
				c1.13-1.13,2.26-2.26,3.39-3.4c3.17-2.16,7.9-1.1,10.55,1.44c0.7,0.87,1.22,1.84,1.55,2.91c-0.36,2.64-0.72,5.29-1.08,7.93
				c-3.05,6.04-12.71,4.16-15.46-1.13c-2.19-4.21,0.09-7.83,4.28-8.96c4.16-1.12,7.28,0.05,9.36,3.62c2.22,2.87,2.23,6.17,0.02,9.9
				c-1.07,1.99-2.58,3.25-4.53,3.8c-1.31,0.44-1.23,0.44,0.22,0.01c-1,0.39-1.99,0.45-2.99,0.18c-1.38-0.26-1.33-0.21,0.15,0.17
				c-0.64,0-1.15-0.22-1.54-0.68c-0.95-1.03,2.03,1.97,2.44,2.4c0.55,0.58,1.08,1.17,1.6,1.78c1.18,1.4,1.37,1.61,0.58,0.64
				c-2.5-2.88-2.66-6.58-0.47-11.12c0.6-1.2,1.56-2.02,2.86-2.46c0.86-0.84,1.87-1.28,3.02-1.34c1.34,0.26,1.42,0.25,0.24-0.02
				c-0.44-0.25-5.11-1.73-3.44-1.05c1.65,0.67-2.25-1.16-2.72-1.43c-0.65-0.36-1.27-0.75-1.88-1.18c1.2,0.95,1.38,1.03,0.54,0.25
				c-0.8-0.84-0.71-0.67,0.28,0.52c-0.74-1.36-0.81-1.46-0.23-0.3c0.51,0.8,0.69,1.7,0.56,2.68c0.03-1.58-0.02-1.67-0.15-0.29
				c-0.03,0.97-0.33,1.85-0.92,2.66c-1.48,1.66-1.56,1.86-0.21,0.62c6.58-5.63,6.22-17.63,0-23.33
				C310.21,418.56,300.91,418.99,293.89,424.99L293.89,424.99z"/>
		</g>
	</g>
	<g class="st1">
		<g>
			<path class="st2" d="M280.02,618.77c-10.23-2.82-21.47,1.56-26.88,10.81c-5.64,9.63-3.34,21.93,3.96,29.96
				c12.19,13.43,36.93,9.83,44.51-6.73c8.99-19.63-7.28-43.04-29.21-39.06c-10.77,1.95-18.77,12.46-18.19,23.37
				c0.53,9.83,6.6,18.37,15.23,22.89c9.29,4.87,21.38,4.33,29.01-3.38c8.55-8.65,7.74-21.81,0.69-30.94
				c-13.17-17.05-43.01-16.79-51.84,4.13c-9.33,22.11,18.12,40.46,37.77,35.57c10.46-2.6,18.72-12.19,18.62-23.15
				c-0.1-10.66-8.28-20.17-18.59-22.4c-10.78-2.34-22.67,2.3-28.25,12.05c-6.01,10.49-2.9,22.51,4.06,31.52
				c6.19,8.01,16.47,15.29,27.03,14.74c14.33-0.74,25.13-14.09,21.34-28.26c-2.23-8.34-11.86-14.25-20.3-11.52
				c-8.56,2.77-13.91,11.36-11.52,20.3c-0.69-8.53,2.07-12.74,8.3-12.64c1.51-0.94,2.89-1.03,4.15-0.28
				c1.02,0.52,0.75,0.35-0.78-0.5c-0.43-0.29-0.86-0.58-1.29-0.87c2.53,1.86-1.07-1.26-1.27-1.46c1.11,1.12,0.45,0.76-0.22-0.32
				c-1.68-2.74,0.23,0.33,0.23,1.52c0,2.32-1.3,5.09-3.11,6.5c-2.75,2.15-6.27,1.82-9-0.23c-4.16-3.12-4.9-10.9-1.21-14.7
				c0.32-0.33,5.42-2.76,5.35-2.36c1.05,0.18,0.64,0.05-1.22-0.39c-0.55-0.19-1.1-0.38-1.65-0.57c1.51,0.65,1.74,0.7,0.68,0.14
				c-0.8-0.51-0.84-0.48-0.11,0.08c0.38,1.01,1.51,1.98,1.86,3.2c1.01,3.44-0.09,7.77-3.16,9.61c-0.7,0.42-1.75,0.42-2.39,0.83
				c-1.23-0.22-1.26-0.19-0.1,0.1c1.07,0.36,1.12,0.32,0.15-0.09c0.48,0.25,0.95,0.5,1.43,0.75c1.81,1.27,1.84,1.13,0.09-0.41
				c-1.26-0.8-1.87-1.97-1.83-3.51c-1.87-5.14,0.67-9.31,7.63-12.5c1.76-0.44,3.11,0.18,4.76,0.33c1.15,0.58,1.06,0.5-0.28-0.23
				c0.38,0.28,0.76,0.56,1.13,0.84c0.89,1.92,1.3,2.53,1.29,4.92c-0.03,6.54-6,10.2-11.87,9.35c-1.77-0.95-2.13-1.12-1.08-0.51
				c0.78,0.47,0.71,0.42-0.21-0.17c-1.02-1.25-1.81-1.94-2.41-3.52c0.92,2.42,0.02-1.35,0.48-2.67c0.42-1.21,1.29-2.08,2.11-3.01
				c-1.65,1.88,1.45-0.7,2.46-1.09c-2.83,1.11,2.24,0.03,0.34,0.06c-0.94-0.02-0.78,0.01,0.45,0.12c1.03,0,1.97,0.32,2.82,0.95
				c1.19,0.76,2.02,1.94,2.5,3.25c2.3,6.37-4.87,13.17-11.22,11.42c8.31,2.29,18.32-2.84,20.3-11.52
				C293.53,630.35,288.93,621.22,280.02,618.77L280.02,618.77z"/>
		</g>
	</g>
	<g class="st1">
		<g>
			<path class="st2" d="M83.09,219.09c3.33,4.76,6.66,9.53,9.99,14.29c2.5,3.58,5.53,6.39,9.86,7.58c3.95,1.09,9.21,0.6,12.71-1.66
				c7.01-4.52,11.21-15.01,5.92-22.58c-3.33-4.76-6.66-9.53-9.99-14.29c-2.5-3.58-5.53-6.39-9.86-7.58
				c-3.95-1.09-9.21-0.6-12.71,1.66C82,201.04,77.8,211.52,83.09,219.09L83.09,219.09z"/>
		</g>
	</g>
	<g class="st1">
		<g>
			<path class="st2" d="M18.69,342c3.16,0.62,6.32,1.25,9.48,1.87c4.39,0.87,8.75,0.66,12.71-1.66c3.42-2,6.69-5.93,7.58-9.86
				c0.96-4.22,0.75-8.96-1.66-12.71c-2.23-3.46-5.68-6.76-9.86-7.58c-3.16-0.62-6.32-1.25-9.48-1.87
				c-4.39-0.87-8.75-0.66-12.71,1.66c-3.42,2-6.69,5.93-7.58,9.86c-0.96,4.22-0.75,8.96,1.66,12.71
				C11.06,337.88,14.5,341.18,18.69,342L18.69,342z"/>
		</g>
	</g>
	<g class="st1">
		<g>
			<path class="st2" d="M12.62,476.67c4.19,0,8.39,0,12.58,0c8.63,0,16.9-7.59,16.5-16.5c-0.4-8.94-7.25-16.5-16.5-16.5
				c-4.19,0-8.39,0-12.58,0c-8.63,0-16.9,7.59-16.5,16.5C-3.48,469.11,3.36,476.67,12.62,476.67L12.62,476.67z"/>
		</g>
	</g>
	<g class="st1">
		<g>
			<path class="st2" d="M170.94,294.7c-0.99,0.07-1.97,0.14-2.96,0.21c-6.7,0.47-12.39,3.77-15.08,10.14
				c-2.38,5.64-1.61,13.83,3.41,18.02c9.06,7.57,24.16,15.64,35.64,8.25c7.46-4.81,10.66-13.51,8.63-22.1
				c-1.52-6.47-6.84-11.71-12.71-14.42c-4.24,10.05-8.48,20.11-12.71,30.16c0.98,0.39,1.96,0.79,2.93,1.18
				c3.71,1.5,9.42,0.26,12.71-1.66c3.42-2,6.69-5.93,7.58-9.86c0.96-4.22,0.75-8.96-1.66-12.71c-2.48-3.84-5.65-5.88-9.86-7.58
				c-0.98-0.39-1.96-0.79-2.93-1.18c-3.56-1.44-9.58-0.35-12.71,1.66c-3.06,1.98-5.33,4.52-6.75,7.89
				c-2.93,6.94-0.72,17.16,6.75,20.6c0.58,0.27,1.14,0.57,1.72,0.83c1.95,0.88-0.55-0.37-1.07-0.91c-1.04-1.74-2.07-3.48-3.11-5.22
				c5.26-5.49,10.52-10.98,15.77-16.47c-0.74-0.36-1.76-0.42-2.55-0.67c-0.5-0.16-2.82-1.06-0.5-0.09c2.31,0.96,0.06-0.05-0.41-0.3
				c-1.19-0.65-4.92-3.65-1.42-0.72c-3.89,9.39-7.78,18.78-11.67,28.17c0.99-0.07,1.97-0.14,2.96-0.21
				c8.59-0.6,16.92-7.16,16.5-16.5C187.06,302.77,180.16,294.06,170.94,294.7L170.94,294.7z"/>
		</g>
	</g>
	<g class="st1">
		<g>
			<path class="st2" d="M292.39,300.32c3.2,10.62,11.18,18.62,21.74,21.97c4.95,1.57,11.31,1.85,16.33,0.26
				c9.17-2.91,15.4-12.78,12.5-22.33c-3.42-11.31-17.28-19.42-28.78-19.41c-6.41,0.01-12.19,2.46-17.06,6.48
				c-5.41,4.46-7.3,10.41-8.11,17.13c6.96-5.3,13.92-10.61,20.89-15.91c0.85,0.38,1.71,0.75,2.56,1.13
				c1.97,1.97,3.95,3.95,5.92,5.92c-0.74,5.23-1.48,10.45-2.23,15.68c-2.43,1.41-4.85,2.83-7.28,4.24
				c-6.95,0.21-11.49-2.14-13.62-7.05c-0.3-2.13-0.4-2.24-0.29-0.31c0.15,8.62,7.48,16.9,16.5,16.5c8.81-0.39,16.67-7.25,16.5-16.5
				c-0.13-7.1-1.74-13.87-6.76-19.14c-5.23-5.5-13.94-7.81-21.11-5.31c-8.11,2.82-13.02,9.89-13.2,18.42
				c-0.16,7.99,6.06,16.99,14.22,18.25c11.51,1.78,19.51-4.42,20.89-15.91c-0.72,5.98-3.44,9.6-9.51,9.15
				c0.44,0.13,0.87,0.26,1.31,0.39c-1.82-0.79-1.89-0.74-0.21,0.14c0.39,0.25,0.78,0.51,1.18,0.76c3.13,2.4,1.97,0.62-3.5-5.34
				c0-2.92,0-5.85,0-8.77c-0.11,0.32-0.23,0.64-0.34,0.97c2.53-3.29,5.06-6.57,7.58-9.86c5.84-1.03,7.23-1.45,4.18-1.27
				c0.66,0.12,1.31,0.23,1.97,0.35c-0.8-0.15-1.58-0.36-2.35-0.64c1.86,0.83,2.26,0.94,1.19,0.34c-1.02-0.64-0.73-0.38,0.87,0.78
				c-1.04-1.1-1.16-1.14-0.36-0.12c0.74,1.07,0.7,0.97-0.12-0.3c0.76,2.13,0.86,2.32,0.3,0.56c-2.49-8.25-11.67-14.31-20.3-11.52
				C295.57,282.72,289.72,291.47,292.39,300.32L292.39,300.32z"/>
		</g>
	</g>
	<g class="st1">
		<g>
			<path class="st2" d="M217.61,180.09c1.03,1.76,2.05,3.52,3.08,5.28c2.09,3.58,5.86,6.48,9.86,7.58c2.19,0.69,4.39,0.79,6.58,0.29
				c2.2-0.1,4.24-0.75,6.13-1.96c3.52-2.27,6.62-5.65,7.58-9.86c0.99-4.33,0.62-8.8-1.66-12.71c-1.03-1.76-2.05-3.52-3.08-5.28
				c-2.09-3.58-5.86-6.48-9.86-7.58c-2.19-0.69-4.39-0.79-6.58-0.29c-2.2,0.1-4.24,0.75-6.13,1.96c-3.52,2.27-6.62,5.65-7.58,9.86
				C214.96,171.71,215.33,176.17,217.61,180.09L217.61,180.09z"/>
		</g>
	</g>
	<g class="st1">
		<g>
			<path class="st2" d="M356.76,165.49c-1.97,4.34-3.72,8.6-4.45,13.31c-0.67,4.34-0.85,8.81,1.66,12.71
				c1.98,3.06,4.52,5.33,7.89,6.75c3.28,1.38,7.26,1.96,10.74,0.83c4.23-1.37,7.39-3.86,9.86-7.58c1.35-2.04,2.71-4.07,4.06-6.11
				c2.29-3.44,2.74-8.82,1.66-12.71c-1.05-3.83-4.01-7.98-7.58-9.86c-3.83-2.02-8.47-3.04-12.71-1.66
				c-4.23,1.37-7.39,3.86-9.86,7.58c-1.35,2.04-2.71,4.07-4.06,6.11c10.05,4.24,20.11,8.48,30.16,12.71
				c0.44-2.82,1.19-5.53,2.26-8.17c-0.55,1.31-1.11,2.63-1.66,3.94c0.17-0.4,0.34-0.8,0.53-1.2c1.88-4.16,2.92-8.15,1.66-12.71
				c-1.05-3.83-4.01-7.98-7.58-9.86c-3.83-2.02-8.47-3.04-12.71-1.66C362.77,159.15,358.5,161.65,356.76,165.49L356.76,165.49z"/>
		</g>
	</g>
	<g class="st1">
		<g>
			<path class="st2" d="M492.76,209.48c-3.71,3.54-7.37,7.16-11.15,10.62c1.11-0.86,2.23-1.72,3.34-2.58
				c-0.17,0.12-0.34,0.24-0.5,0.36c1.31-0.55,2.63-1.11,3.94-1.66c-0.19,0.08-0.38,0.16-0.57,0.24c1.46-0.2,2.92-0.39,4.39-0.59
				c-0.16,0.02-0.32,0.03-0.48,0.05c1.46,0.2,2.92,0.39,4.39,0.59c-0.14-0.03-0.28-0.06-0.42-0.09c1.31,0.55,2.63,1.11,3.94,1.66
				c-0.12-0.07-0.25-0.14-0.37-0.21c1.11,0.86,2.23,1.72,3.34,2.58c-0.1-0.1-0.21-0.2-0.31-0.3c0.86,1.11,1.72,2.23,2.58,3.34
				c-0.08-0.13-0.17-0.26-0.25-0.38c0.55,1.31,1.11,2.63,1.66,3.94c-0.15-0.29-0.25-0.61-0.29-0.93c0.2,1.46,0.39,2.92,0.59,4.39
				c-0.05-0.34-0.05-0.68,0-1.02c-0.2,1.46-0.39,2.92-0.59,4.39c0.04-0.17,0.08-0.33,0.12-0.5c-0.55,1.31-1.11,2.63-1.66,3.94
				c0.1-0.32,0.27-0.61,0.49-0.87c-0.86,1.11-1.72,2.23-2.58,3.34c0.13-0.11,0.25-0.22,0.38-0.33c-1.11,0.86-2.23,1.72-3.34,2.58
				c0.24-0.13,0.48-0.26,0.72-0.39c-1.31,0.55-2.63,1.11-3.94,1.66c0.26-0.08,0.51-0.15,0.77-0.23c-1.46,0.2-2.92,0.39-4.39,0.59
				c0.54-0.1,1.09-0.12,1.63-0.06c-1.46-0.2-2.92-0.39-4.39-0.59c1.15,0.16,2.22,0.45,3.32,0.81c8.21,2.69,18.38-3.12,20.3-11.52
				c2.07-9.07-2.74-17.42-11.52-20.3c-9.21-3.02-20.08-0.93-25.46,7.78c-4.44,7.19-3.74,17.68,2.52,23.7
				c3.55,3.41,8.02,5.43,13.01,5.41c5.3-0.03,9.6-2.48,13.44-5.88c3.68-3.26,7.14-6.81,10.69-10.2c6.26-5.97,6.46-17.4,0-23.33
				C509.38,203.32,499.44,203.11,492.76,209.48L492.76,209.48z"/>
		</g>
	</g>
	<g class="st1">
		<g>
			<path class="st2" d="M550.25,308.34c0.36,1.75,0.71,3.49,1.07,5.24c0.51,2.15,1.49,4.02,2.95,5.61c1.16,1.8,2.71,3.21,4.63,4.25
				c1.89,1.21,3.94,1.86,6.13,1.96c2.19,0.49,4.39,0.39,6.58-0.29c3.99-1.29,7.84-3.77,9.86-7.58c0.55-1.31,1.11-2.63,1.66-3.94
				c0.79-2.92,0.79-5.85,0-8.77c-0.36-1.75-0.71-3.49-1.07-5.24c-0.51-2.15-1.49-4.02-2.95-5.61c-1.16-1.8-2.71-3.21-4.63-4.25
				c-1.89-1.21-3.94-1.86-6.13-1.96c-2.19-0.49-4.39-0.39-6.58,0.29c-3.99,1.29-7.84,3.77-9.86,7.58c-0.55,1.31-1.11,2.63-1.66,3.94
				C549.46,302.49,549.46,305.41,550.25,308.34L550.25,308.34z"/>
		</g>
	</g>
	<g class="st1">
		<g>
			<path class="st2" d="M454.05,342.45c8.63,0,16.9-7.59,16.5-16.5c-0.4-8.94-7.25-16.5-16.5-16.5c-8.63,0-16.9,7.59-16.5,16.5
				C437.95,334.89,444.8,342.45,454.05,342.45L454.05,342.45z"/>
		</g>
	</g>
	<g class="st1">
		<g>
			<path class="st2" d="M598.69,459.73c0.15-0.07,0.31-0.13,0.46-0.2c-1.31,0.55-2.63,1.11-3.94,1.66c1.11-0.42,2.21-0.7,3.38-0.87
				c-1.46,0.2-2.92,0.39-4.39,0.59c1.18-0.12,2.32-0.11,3.49,0.04c3.88,0.5,9.04-2.2,11.67-4.83c2.86-2.86,5.02-7.56,4.83-11.67
				c-0.19-4.27-1.59-8.69-4.83-11.67c-1.11-0.86-2.23-1.72-3.34-2.58c-2.57-1.49-5.35-2.24-8.33-2.25c-2.74-0.35-5.4,0.14-8.13,0.58
				c-2.67,0.43-5.05,1.63-7.54,2.69c-3.53,1.51-6.62,6.35-7.58,9.86c-1.09,3.95-0.6,9.21,1.66,12.71c2.27,3.52,5.65,6.62,9.86,7.58
				c1.46,0.2,2.92,0.39,4.39,0.59C593.34,461.98,596.12,461.23,598.69,459.73L598.69,459.73z"/>
		</g>
	</g>
	<g class="st1">
		<g>
			<path class="st2" d="M450.77,519.02c0.35,0.35,0.7,0.7,1.05,1.05c1.49,1.61,3.26,2.75,5.31,3.41c1.97,1.03,4.09,1.51,6.36,1.42
				c2.27,0.09,4.39-0.39,6.36-1.42c2.05-0.67,3.82-1.8,5.31-3.41c0.86-1.11,1.72-2.23,2.58-3.34c1.49-2.57,2.24-5.35,2.25-8.33
				c-0.2-1.46-0.39-2.92-0.59-4.39c-0.78-2.8-2.2-5.22-4.24-7.28c-0.35-0.35-0.7-0.7-1.05-1.05c-1.49-1.61-3.26-2.75-5.31-3.41
				c-1.97-1.03-4.09-1.51-6.36-1.42c-2.27-0.09-4.39,0.39-6.36,1.42c-2.05,0.67-3.82,1.8-5.31,3.41c-0.86,1.11-1.72,2.23-2.58,3.34
				c-1.49,2.57-2.24,5.35-2.25,8.33c0.2,1.46,0.39,2.92,0.59,4.39C447.31,514.53,448.73,516.96,450.77,519.02L450.77,519.02z"/>
		</g>
	</g>
	<g class="st1">
		<g>
			<path class="st2" d="M312.24,461.58c2.71,1.01,5.43,2.02,8.14,3.03c1.46,0.2,2.92,0.39,4.39,0.59c2.27,0.09,4.39-0.39,6.36-1.42
				c3.17-1.34,6.24-3.62,7.89-6.75c1.37-2.59,2.12-5.4,2.25-8.33c0.2-4.42-2.07-8.46-4.83-11.67c-5.18-5.99-13.25-9.06-21.03-9.26
				c-4.16-0.11-8.75,1.92-11.67,4.83c-2.86,2.86-5.02,7.56-4.83,11.67c0.41,9.13,7.25,16.26,16.5,16.5
				c0.57,0.01,1.12,0.05,1.68,0.12c-1.46-0.2-2.92-0.39-4.39-0.59c1.13,0.19,2.18,0.5,3.23,0.94c-1.31-0.55-2.63-1.11-3.94-1.66
				c0.86,0.41,1.65,0.87,2.42,1.42c-1.11-0.86-2.23-1.72-3.34-2.58c0.75,0.59,1.41,1.22,2.03,1.94c5.35-9.19,10.7-18.39,16.05-27.58
				c-2.71-1.01-5.43-2.02-8.14-3.03c-3.81-1.42-9.33-0.32-12.71,1.66c-3.42,2-6.69,5.93-7.58,9.86c-0.96,4.22-0.75,8.96,1.66,12.71
				C304.82,457.79,308.02,460.01,312.24,461.58L312.24,461.58z"/>
		</g>
	</g>
	<g class="st1">
		<g>
			<path class="st2" d="M137.39,445.21c8.63,0,16.9-7.59,16.5-16.5c-0.4-8.94-7.25-16.5-16.5-16.5c-8.63,0-16.9,7.59-16.5,16.5
				C121.29,437.65,128.14,445.21,137.39,445.21L137.39,445.21z"/>
		</g>
	</g>
	<g class="st1">
		<g>
			<path class="st2" d="M166.9,526.32c1.89,3.09,4.48,5.75,7.7,7.43c4.14,2.16,8.36,2.79,12.92,2.18c3.78-0.51,7-1.87,10.02-4.2
				c2.17-1.68,3.44-2.72,4.95-5.38c0.9-1.58,1.77-3.42,2.19-5.18c1.02-4.25,0.57-8.89-1.66-12.71c-2-3.42-5.93-6.69-9.86-7.58
				c-4.22-0.96-8.96-0.75-12.71,1.66c-3.55,2.29-6.58,5.65-7.58,9.86c-0.04,0.2-0.09,0.4-0.17,0.59c0.55-1.31,1.11-2.63,1.66-3.94
				c-0.13,0.28-0.26,0.52-0.44,0.77c0.86-1.11,1.72-2.23,2.58-3.34c-0.2,0.23-0.39,0.43-0.62,0.63c1.11-0.86,2.23-1.72,3.34-2.58
				c-0.33,0.25-0.66,0.44-1.03,0.61c1.31-0.55,2.63-1.11,3.94-1.66c-0.39,0.15-0.77,0.26-1.18,0.34c1.46-0.2,2.92-0.39,4.39-0.59
				c-0.52,0.07-1.01,0.07-1.53,0.01c1.46,0.2,2.92,0.39,4.39,0.59c-0.3-0.06-0.58-0.13-0.87-0.23c1.31,0.55,2.63,1.11,3.94,1.66
				c-0.37-0.16-0.7-0.34-1.02-0.59c1.11,0.86,2.23,1.72,3.34,2.58c-0.15-0.13-0.29-0.27-0.42-0.42c0.86,1.11,1.72,2.23,2.58,3.34
				c-0.13-0.16-0.25-0.33-0.34-0.51c-2.19-3.58-5.78-6.46-9.86-7.58c-3.95-1.09-9.21-0.6-12.71,1.66c-3.52,2.27-6.62,5.65-7.58,9.86
				C164.26,517.89,164.55,522.48,166.9,526.32L166.9,526.32z"/>
		</g>
	</g>
	<g class="st1">
		<g>
			<path class="st2" d="M42.82,562.7c-6.32,0.87-12.63,1.73-18.95,2.6c-3.79,0.52-8.03,4.46-9.86,7.58
				c-2.07,3.54-2.95,8.75-1.66,12.71c1.29,3.99,3.77,7.84,7.58,9.86c4.21,2.22,8.05,2.3,12.71,1.66c6.32-0.87,12.63-1.73,18.95-2.6
				c3.79-0.52,8.03-4.46,9.86-7.58c2.07-3.54,2.95-8.75,1.66-12.71c-1.29-3.99-3.77-7.84-7.58-9.86
				C51.33,562.14,47.49,562.06,42.82,562.7L42.82,562.7z"/>
		</g>
	</g>
	<g class="st1">
		<g>
			<path class="st2" d="M264.16,652.97c1.56,0.87,3.04,1.84,4.47,2.9c-1.11-0.86-2.23-1.72-3.34-2.58c1.94,1.51,3.71,3.17,5.34,5.01
				c2.7,3.05,7.7,4.83,11.67,4.83c4.05,0,8.88-1.8,11.67-4.83c2.89-3.14,5.03-7.27,4.83-11.67c-0.2-4.53-1.82-8.26-4.83-11.67
				c-3.69-4.17-8.29-7.77-13.14-10.49c-3.78-2.12-8.51-2.82-12.71-1.66c-3.83,1.05-7.98,4.01-9.86,7.58
				C254.12,638.19,256.12,648.47,264.16,652.97L264.16,652.97z"/>
		</g>
	</g>
	<g class="st1">
		<g>
			<path class="st2" d="M129.9,670.99c-9.39,1.56-17.31,7.99-22.41,15.76c-4.74,7.23-1.68,18.56,5.92,22.58
				c8.25,4.36,17.51,1.8,22.58-5.92c0.26-0.42,0.54-0.82,0.83-1.21c-0.86,1.11-1.72,2.23-2.58,3.34c1.08-1.37,2.27-2.54,3.65-3.61
				c-1.11,0.86-2.23,1.72-3.34,2.58c1.21-0.86,2.47-1.58,3.83-2.18c-1.31,0.55-2.63,1.11-3.94,1.66c1.39-0.55,2.77-0.93,4.24-1.18
				c3.84-0.64,7.98-4.36,9.86-7.58c2.07-3.54,2.95-8.75,1.66-12.71c-1.29-3.99-3.77-7.84-7.58-9.86
				C138.46,670.46,134.51,670.22,129.9,670.99L129.9,670.99z"/>
		</g>
	</g>
	<g class="st1">
		<g>
			<path class="st2" d="M205.87,732.79c-0.01,0.08-0.02,0.15-0.02,0.23c0.2-1.46,0.39-2.92,0.59-4.39
				c-0.06,0.38-0.16,0.75-0.29,1.11c0.55-1.31,1.11-2.63,1.66-3.94c-0.18,0.43-0.41,0.82-0.69,1.19c0.86-1.11,1.72-2.23,2.58-3.34
				c-0.25,0.3-0.51,0.57-0.8,0.82c1.11-0.86,2.23-1.72,3.34-2.58c-0.37,0.29-0.75,0.51-1.18,0.7c1.31-0.55,2.63-1.11,3.94-1.66
				c-0.07,0.03-0.14,0.05-0.22,0.08c-2.15,0.51-4.02,1.49-5.61,2.95c-1.8,1.16-3.21,2.71-4.25,4.63c-1.21,1.89-1.86,3.94-1.96,6.13
				c-0.49,2.19-0.39,4.39,0.29,6.58c0.55,1.31,1.11,2.63,1.66,3.94c1.47,2.48,3.44,4.45,5.92,5.92c1.31,0.55,2.63,1.11,3.94,1.66
				c2.92,0.79,5.85,0.79,8.77,0c1.69-0.63,3.61-1.25,5.16-2.3c2.88-1.97,3.74-2.78,5.62-5.21c0.51-0.65,1.22-1.46,1.68-2.24
				c0.46-0.79,0.81-1.83,1.13-2.59c0.32-0.77,0.83-1.73,1.04-2.63c0.39-1.66,0.52-3.38,0.7-5.07c0.09-2.27-0.39-4.39-1.42-6.36
				c-0.67-2.05-1.8-3.82-3.41-5.31c-1.49-1.61-3.26-2.75-5.31-3.41c-1.97-1.03-4.09-1.51-6.36-1.42c-1.46,0.2-2.92,0.39-4.39,0.59
				c-2.8,0.78-5.22,2.2-7.28,4.24c-0.86,1.11-1.72,2.23-2.58,3.34C206.63,727.04,205.88,729.81,205.87,732.79L205.87,732.79z"/>
		</g>
	</g>
	<g class="st1">
		<g>
			<path class="st2" d="M339.47,746.64c1.17,4.86,2.34,9.73,3.51,14.59c2.02,8.4,12.01,14.21,20.3,11.52
				c8.73-2.83,13.69-11.3,11.52-20.3c-1.17-4.86-2.34-9.73-3.51-14.59c-2.02-8.4-12.01-14.21-20.3-11.52
				C342.26,729.17,337.31,737.64,339.47,746.64L339.47,746.64z"/>
		</g>
	</g>
	<g class="st1">
		<g>
			<path class="st2" d="M438.81,715.99c0.74,5.99,1.65,11.65,3.82,17.29c1.59,4.13,3.64,7.55,7.58,9.86
				c3.54,2.07,8.75,2.95,12.71,1.66c3.99-1.29,7.84-3.77,9.86-7.58c1.96-3.7,3.23-8.64,1.66-12.71c-1.49-3.88-2.53-7.85-3.11-11.96
				c0.2,1.46,0.39,2.92,0.59,4.39c-0.04-0.32-0.08-0.63-0.12-0.95c-0.56-4.54-1.47-8.31-4.83-11.67c-2.86-2.86-7.56-5.02-11.67-4.83
				c-4.27,0.19-8.69,1.59-11.67,4.83C440.9,707.32,438.29,711.75,438.81,715.99L438.81,715.99z"/>
		</g>
	</g>
	<g class="st1">
		<g>
			<path class="st2" d="M526.18,664.95c3.07,1.17,6.13,2.35,9.2,3.52c1.41,0.54,2.83,1.08,4.24,1.62c0.71,0.27,1.41,0.54,2.12,0.81
				c2.99,1.24,1.98,0.54-3.05-2.09c-1.41-2.43-2.83-4.85-4.24-7.28c0.09,0.23,0.18,0.45,0.27,0.68c0.55-4.24,1.11-8.48,1.66-12.71
				c-0.1,0.2-0.2,0.39-0.31,0.59c-3.97,7.66-2.23,18.27,5.92,22.58c7.57,4,18.34,2.26,22.58-5.92c2.99-5.78,3.4-12.19,0.04-17.93
				c-2.89-4.94-7.58-7.19-12.67-9.19c-5.64-2.22-11.32-4.33-16.98-6.5c-8.08-3.09-18.45,3.41-20.3,11.52
				C512.51,654.08,517.53,661.64,526.18,664.95L526.18,664.95z"/>
		</g>
	</g>
	<g class="st1">
		<g>
			<path class="st2" d="M555.98,565.83c7.42,6.94,15.28,13.32,23.4,19.43c6.92,5.21,18.74,1.33,22.58-5.92
				c4.58-8.68,1.47-17.01-5.92-22.58c-1.12-0.84-1.42-1.06-0.13-0.07c-0.77-0.59-1.53-1.2-2.29-1.8c-1.71-1.36-3.39-2.75-5.06-4.16
				c-3.15-2.66-6.22-5.42-9.23-8.24c-6.31-5.9-17.17-6.72-23.33,0C550.1,548.9,549.25,559.53,555.98,565.83L555.98,565.83z"/>
		</g>
	</g>
	<g class="st1">
		<g>
			<path class="st2" d="M339.71,539.79c-3.23,1.25-6.15,2.4-8.56,5.06c-2.32,2.57-3.93,5.35-4.94,8.67
				c-2.01,6.67,0.14,14.15,4.76,19.17c7.22,7.83,19.4,8.96,28.57,4.1c10.42-5.52,14.83-18.31,9.07-28.82
				c-6-10.96-22.56-13.89-31.23-4.47c-5.85,6.35-6.75,17.14,0,23.33c6.36,5.84,17.09,6.78,23.33,0c0.11-0.12,0.22-0.24,0.34-0.37
				c-1.11,0.86-2.23,1.72-3.34,2.58c0.23-0.21,0.5-0.36,0.8-0.45c-1.31,0.55-2.63,1.11-3.94,1.66c0.15-0.03,0.3-0.06,0.44-0.1
				c-1.46,0.2-2.92,0.39-4.39,0.59c0.31-0.04,0.62-0.02,0.93,0.04c-1.46-0.2-2.92-0.39-4.39-0.59c0.32,0.06,0.63,0.17,0.93,0.31
				c-1.31-0.55-2.63-1.11-3.94-1.66c0.31,0.15,0.6,0.33,0.86,0.54c-1.11-0.86-2.23-1.72-3.34-2.58c0.27,0.22,0.51,0.46,0.72,0.73
				c-0.86-1.11-1.72-2.23-2.58-3.34c0.21,0.27,0.38,0.56,0.52,0.87c-0.55-1.31-1.11-2.63-1.66-3.94c0.13,0.31,0.21,0.64,0.24,0.97
				c-0.2-1.46-0.39-2.92-0.59-4.39c0,0.17-0.01,0.34-0.01,0.51c0.2-1.46,0.39-2.92,0.59-4.39c-0.04,0.41-0.14,0.81-0.3,1.19
				c0.55-1.31,1.11-2.63,1.66-3.94c-0.15,0.37-0.35,0.72-0.59,1.05c0.86-1.11,1.72-2.23,2.58-3.34c-0.42,0.5-0.81,0.88-1.32,1.29
				c1.11-0.86,2.23-1.72,3.34-2.58c-0.56,0.36-1.08,0.65-1.69,0.91c1.31-0.55,2.63-1.11,3.94-1.66c-0.63,0.22-1.21,0.38-1.87,0.5
				c1.46-0.2,2.92-0.39,4.39-0.59c-0.88,0.1-1.71,0.09-2.6-0.01c1.46,0.2,2.92,0.39,4.39,0.59c-0.67-0.13-1.24-0.3-1.87-0.55
				c1.31,0.55,2.63,1.11,3.94,1.66c-0.39-0.18-0.75-0.4-1.08-0.66c1.11,0.86,2.23,1.72,3.34,2.58c-0.33-0.27-0.63-0.57-0.87-0.92
				c0.86,1.11,1.72,2.23,2.58,3.34c-0.09-0.15-0.18-0.31-0.27-0.46c0.55,1.31,1.11,2.63,1.66,3.94c-0.16-0.33-0.26-0.67-0.32-1.03
				c0.2,1.46,0.39,2.92,0.59,4.39c-0.06-0.36-0.06-0.72-0.02-1.09c-0.2,1.46-0.39,2.92-0.59,4.39c0.04-0.36,0.12-0.7,0.26-1.04
				c-0.55,1.31-1.11,2.63-1.66,3.94c0.13-0.32,0.31-0.62,0.53-0.89c-0.86,1.11-1.72,2.23-2.58,3.34c0.12-0.12,0.24-0.24,0.36-0.35
				c-1.11,0.86-2.23,1.72-3.34,2.58c0.14-0.09,0.29-0.19,0.43-0.28c-1.31,0.55-2.63,1.11-3.94,1.66c0.16-0.06,0.33-0.13,0.49-0.19
				c4.13-1.59,7.55-3.64,9.86-7.58c2.07-3.54,2.95-8.75,1.66-12.71c-1.29-3.99-3.77-7.84-7.58-9.86
				C348.73,539.5,343.79,538.22,339.71,539.79L339.71,539.79z"/>
		</g>
	</g>
</g>
<g id="Layer_1">
	<rect x="66.95" y="34.49" class="st3" width="458.38" height="219.12"/>
	<text transform="matrix(1 0 0 1 178.162 146.8098)"><tspan x="0" y="0" class="st4 st5 st6">STOP</tspan><tspan x="235.95" y="0" class="st4 st5 st7"> </tspan><tspan x="-38.3" y="86.4" class="st2 st5 st8">THE SPREAD</tspan></text>
	<g>
		<g>
		</g>
	</g>
	<g id="XMLID_1_">
		<g>
			<path class="st9" d="M569.61,409.07c0.24-1.06,0.97-5.5-0.08-17.08c-0.89-9.75-7.47-7.86-7.47-7.86l-1.62-17.77
				c-0.29-3.11-4-4.7-7.12-4.74l-75.04-1.01c-3.22-0.04-5.94,2.38-6.27,5.58l-1.89,18.5c0,0-6.38,0.54-6.61,7.06
				c-0.24,6.53-0.98,17.09-0.98,17.09l-0.13,0.03c-0.85-3.13-1.65-6.34-2.41-9.64c-10.1-43.8,25.74-81,57.5-81
				s65.55,42.38,52.73,88.67C570.02,407.63,569.82,408.35,569.61,409.07z"/>
			<path class="st10" d="M569.53,391.99c1.05,11.58,0.32,16.02,0.08,17.08c-0.01,0.05-0.02,0.08-0.03,0.11
				c-0.01,0.02-0.01,0.05-0.02,0.08c-0.01,0.05-0.02,0.08-0.02,0.08c-13.68,48.04-31.82,71.59-52.05,70.89
				c-23.21-0.8-43.22-27.46-55.09-71.36l0.13-0.03c0,0,0.74-10.56,0.98-17.09c0.23-6.52,6.61-7.06,6.61-7.06l1.89-18.5
				c0.33-3.2,3.05-5.62,6.27-5.58l75.04,1.01c3.12,0.04,6.83,1.63,7.12,4.74l1.62,17.77C562.06,384.13,568.64,382.24,569.53,391.99z
				"/>
			<path class="st11" d="M379.05,318.23c31.76,0,65.55,42.38,52.74,88.67c-0.21,0.77-0.43,1.52-0.64,2.28
				c0.2-0.83,1.03-5.15-0.06-17.19c-0.89-9.75-7.47-7.86-7.47-7.86L422,366.36c-0.29-3.11-4-4.7-7.12-4.74l-75.04-1.01
				c-3.22-0.04-5.94,2.38-6.26,5.58l-1.9,18.5c0,0-6.38,0.54-6.61,7.06c-0.23,6.53-0.97,17.09-0.97,17.09l-0.13,0.04
				c-0.85-3.13-1.66-6.35-2.42-9.65C311.45,355.43,347.3,318.23,379.05,318.23z"/>
			<path class="st12" d="M431.09,391.99c1.09,12.04,0.26,16.36,0.06,17.19c-0.01,0.01-0.01,0.02-0.01,0.03
				c-0.03,0.09-0.04,0.13-0.04,0.13c-13.68,48.04-31.82,71.59-52.05,70.89c-23.21-0.8-43.22-27.46-55.08-71.35l0.13-0.04
				c0,0,0.74-10.56,0.97-17.09c0.23-6.52,6.61-7.06,6.61-7.06l1.9-18.5c0.32-3.2,3.04-5.62,6.26-5.58l75.04,1.01
				c3.12,0.04,6.83,1.63,7.12,4.74l1.62,17.77C423.62,384.13,430.2,382.24,431.09,391.99z"/>
			<path class="st13" d="M292.71,411.36c0.2-0.83,1.04-5.15-0.06-17.2c-0.89-9.74-7.47-7.85-7.47-7.85l-1.62-17.78
				c-0.29-3.11-4-4.69-7.12-4.73l-75.03-1.01c-3.22-0.05-5.94,2.37-6.27,5.58l-1.9,18.49c0,0-6.38,0.55-6.61,7.07
				c-0.23,6.53-0.97,17.09-0.97,17.09l-0.13,0.04c-0.85-3.13-1.66-6.35-2.42-9.65c-10.09-43.8,25.75-81,57.5-81
				c31.76,0,65.56,42.37,52.74,88.67C293.14,409.85,292.93,410.6,292.71,411.36z"/>
			<path class="st14" d="M292.65,394.16c1.1,12.05,0.26,16.37,0.06,17.2c-0.01,0.01-0.01,0.02-0.01,0.03
				c-0.03,0.09-0.04,0.13-0.04,0.13c-13.67,48.03-31.82,71.59-52.05,70.89c-23.2-0.81-43.22-27.46-55.08-71.35l0.13-0.04
				c0,0,0.74-10.56,0.97-17.09c0.23-6.52,6.61-7.07,6.61-7.07l1.9-18.49c0.33-3.21,3.05-5.63,6.27-5.58l75.03,1.01
				c3.12,0.04,6.83,1.62,7.12,4.73l1.62,17.78C285.18,386.31,291.76,384.42,292.65,394.16z"/>
			<path class="st15" d="M98.23,320.41c31.75,0,65.55,42.37,52.73,88.67c-0.2,0.73-0.4,1.45-0.61,2.17
				c0.24-1.05,0.97-5.5-0.09-17.09c-0.88-9.74-7.46-7.85-7.46-7.85l-1.62-17.78c-0.29-3.11-4-4.69-7.13-4.73l-75.03-1.01
				c-3.22-0.05-5.94,2.37-6.27,5.58l-1.9,18.49c0,0-6.37,0.55-6.61,7.07c-0.23,6.53-0.97,17.09-0.97,17.09l-0.13,0.03
				c-0.85-3.13-1.65-6.34-2.41-9.64C30.63,357.61,66.47,320.41,98.23,320.41z"/>
			<path class="st16" d="M150.26,394.16c1.06,11.59,0.33,16.04,0.09,17.09c-0.01,0.05-0.02,0.08-0.03,0.11
				c-0.01,0.02-0.01,0.05-0.02,0.08c-0.01,0.05-0.02,0.08-0.02,0.08c-13.68,48.03-31.82,71.59-52.05,70.89
				c-23.21-0.81-43.22-27.46-55.09-71.36l0.13-0.03c0,0,0.74-10.56,0.97-17.09c0.24-6.52,6.61-7.07,6.61-7.07l1.9-18.49
				c0.33-3.21,3.05-5.63,6.27-5.58l75.03,1.01c3.13,0.04,6.84,1.62,7.13,4.73l1.62,17.78C142.8,386.31,149.38,384.42,150.26,394.16z
				"/>
		</g>
		<g>
		</g>
	</g>
	<g>
		<g>
		</g>
	</g>
	<g>
		<g>
			<path class="st17" d="M96.52,617.78h-4.52l1.27-5.34h4.92l2.15-6.92h-4.55l1.27-5.34h4.96l3.23-10.1h4.84l-3.23,10.1h5.99
				l3.23-10.1h4.84l-3.23,10.1h4.52l-1.27,5.34h-4.92l-2.15,6.92h4.55l-1.27,5.34h-4.96l-3.59,11.3h-4.84l3.59-11.3h-5.99
				l-3.59,11.3h-4.84L96.52,617.78z M109.04,612.44l2.15-6.92h-6.01l-2.15,6.92H109.04z"/>
			<path class="st17" d="M123.14,618.88c0-11.34,7.68-20.29,15.9-20.29c2.69,0,5.31,1.52,6.47,3.91h0.14l1.28-3.19h6.58l-5.96,29.77
				h-6.68l0.13-3.89h-0.14c-2.7,2.82-6.23,4.61-9.32,4.61C126.3,629.79,123.14,625.9,123.14,618.88z M141.47,618.69l2.13-10.55
				c-0.99-1.98-2.6-2.85-4-2.85c-4.13,0-7.97,5.44-7.97,12.54c0,3.65,1.35,5.26,3.48,5.26C137.1,623.09,139.55,622.08,141.47,618.69
				z"/>
			<path class="st17" d="M156.59,623.98c0-1.05,0.12-2.15,0.44-3.64l6.66-33.3h8.21l-6.75,33.62c-0.12,0.6-0.12,0.86-0.12,1.15
				c0,1.02,0.54,1.38,1.14,1.38c0.34,0,0.56,0,1.06-0.14l-0.25,6.09c-1,0.34-2.44,0.66-4.35,0.66
				C158.35,629.79,156.59,627.59,156.59,623.98z"/>
			<path class="st17" d="M173.09,623.98c0-1.05,0.12-2.15,0.44-3.64l6.66-33.3h8.21l-6.75,33.62c-0.12,0.6-0.12,0.86-0.12,1.15
				c0,1.02,0.54,1.38,1.14,1.38c0.34,0,0.56,0,1.06-0.14l-0.25,6.09c-1,0.34-2.44,0.66-4.35,0.66
				C174.84,629.79,173.09,627.59,173.09,623.98z"/>
			<path class="st17" d="M194.1,599.31h6.68l-0.13,3.99h0.24c2.84-2.53,6.25-4.71,9.6-4.71c4.4,0,6.08,2.09,6.9,5.23
				c3.29-3.07,6.71-5.23,10.06-5.23c4.9,0,7.02,2.68,7.02,7.65c0,1.34-0.17,2.75-0.48,4.24l-3.72,18.6h-8.21l3.52-17.57
				c0.26-1.21,0.48-2.05,0.48-2.85c0-2.04-1.07-3.07-3.01-3.07c-1.33,0-3.31,1.23-5.83,3.89l-3.92,19.6h-8.21l3.52-17.57
				c0.26-1.21,0.48-2.05,0.48-2.85c0-2.04-1.07-3.07-2.91-3.07c-1.43,0-3.41,1.23-5.93,3.89l-3.83,19.6h-8.21L194.1,599.31z"/>
			<path class="st17" d="M238.87,618.88c0-11.34,7.68-20.29,15.9-20.29c2.69,0,5.31,1.52,6.47,3.91h0.14l1.28-3.19h6.58l-5.96,29.77
				h-6.68l0.13-3.89h-0.14c-2.7,2.82-6.23,4.61-9.32,4.61C242.04,629.79,238.87,625.9,238.87,618.88z M257.21,618.69l2.13-10.55
				c-0.99-1.98-2.6-2.85-4-2.85c-4.13,0-7.97,5.44-7.97,12.54c0,3.65,1.35,5.26,3.48,5.26
				C252.84,623.09,255.29,622.08,257.21,618.69z"/>
			<path class="st17" d="M269.63,624.02l4.78-3.93c2.05,2.52,4.26,3.69,6.42,3.69c2.22,0,4.14-1.22,4.14-2.82
				c0-1.71-1.74-2.49-5.12-4.4c-3.37-1.89-6.01-4.5-6.01-8.27c0-5.59,5.17-9.7,11.53-9.7c4.11,0,7.34,2.01,9.76,4.55l-4.46,4.27
				c-1.46-1.48-3.2-2.7-5.31-2.7c-2.26,0-3.8,1.28-3.8,2.84c0,1.89,2.52,2.76,4.91,4.12c3.53,1.92,6.23,4.28,6.23,8.36
				c0,5.85-5.19,9.78-12.39,9.78C276.69,629.79,272.08,627.73,269.63,624.02z"/>
			<path class="st17" d="M304.86,587.04h8.21l-4.9,24.36h0.22l11.26-12.09h9.08l-12.15,13l7.06,16.76h-8.23l-4.5-12l-4.82,4.84
				l-1.46,7.16h-8.21L304.86,587.04z"/>
			<path class="st17" d="M326.57,624.02l4.78-3.93c2.05,2.52,4.26,3.69,6.42,3.69c2.22,0,4.14-1.22,4.14-2.82
				c0-1.71-1.74-2.49-5.12-4.4c-3.37-1.89-6.01-4.5-6.01-8.27c0-5.59,5.17-9.7,11.53-9.7c4.11,0,7.34,2.01,9.76,4.55l-4.46,4.27
				c-1.46-1.48-3.2-2.7-5.31-2.7c-2.26,0-3.8,1.28-3.8,2.84c0,1.89,2.52,2.76,4.91,4.12c3.53,1.92,6.23,4.28,6.23,8.36
				c0,5.85-5.19,9.78-12.39,9.78C333.63,629.79,329.02,627.73,326.57,624.02z"/>
			<path class="st17" d="M359.22,599.31h6.68l-0.13,3.99h0.24c2.84-2.53,6.25-4.71,9.6-4.71c4.4,0,6.08,2.09,6.9,5.23
				c3.29-3.07,6.71-5.23,10.07-5.23c4.9,0,7.02,2.68,7.02,7.65c0,1.34-0.17,2.75-0.48,4.24l-3.72,18.6h-8.21l3.52-17.57
				c0.26-1.21,0.48-2.05,0.48-2.85c0-2.04-1.07-3.07-3.01-3.07c-1.33,0-3.31,1.23-5.83,3.89l-3.92,19.6h-8.21l3.52-17.57
				c0.26-1.21,0.48-2.05,0.48-2.85c0-2.04-1.07-3.07-2.91-3.07c-1.43,0-3.41,1.23-5.93,3.89l-3.83,19.6h-8.21L359.22,599.31z"/>
			<path class="st17" d="M403.99,618.88c0-11.34,7.68-20.29,15.9-20.29c2.69,0,5.31,1.52,6.47,3.91h0.14l1.28-3.19h6.58l-5.96,29.77
				h-6.68l0.13-3.89h-0.14c-2.7,2.82-6.22,4.61-9.32,4.61C407.16,629.79,403.99,625.9,403.99,618.88z M422.33,618.69l2.13-10.55
				c-1-1.98-2.6-2.85-4-2.85c-4.13,0-7.97,5.44-7.97,12.54c0,3.65,1.35,5.26,3.48,5.26C417.96,623.09,420.41,622.08,422.33,618.69z"
				/>
			<path class="st17" d="M438.99,621.92c0-1.28,0.22-2.49,0.44-3.75l2.6-12.46h-3.97l1.23-6.07l4.38-0.34l2.51-7.79h6.88l-1.48,7.79
				h6.73l-1.25,6.4h-6.93l-2.6,12.78c-0.12,0.72-0.14,1.34-0.14,1.98c0,1.97,0.96,2.91,3.11,2.91c0.85,0,1.65-0.3,2.41-0.68
				l1.49,5.77c-1.57,0.6-3.92,1.32-6.99,1.32C441.42,629.79,438.99,626.48,438.99,621.92z"/>
			<path class="st17" d="M461.01,621.92c0-1.28,0.22-2.49,0.44-3.75l2.6-12.46h-3.97l1.23-6.07l4.38-0.34l2.51-7.79h6.88l-1.48,7.79
				h6.73l-1.25,6.4h-6.93l-2.6,12.78c-0.12,0.72-0.14,1.34-0.14,1.98c0,1.97,0.96,2.91,3.11,2.91c0.85,0,1.65-0.3,2.41-0.68
				l1.49,5.77c-1.57,0.6-3.92,1.32-6.99,1.32C463.44,629.79,461.01,626.48,461.01,621.92z"/>
			<path class="st17" d="M497.57,598.59c7.11,0,9.71,4.99,9.71,11.17c0,2.81-1.05,5.87-1.51,6.78h-16.96
				c-0.21,4.95,2.78,7.06,6.7,7.06c1.85,0,4-1.02,5.46-2.09l2.92,5.18c-2.38,1.68-6.07,3.12-10.67,3.12
				c-7.19,0-12.18-4.77-12.18-12.75C481.03,606.03,489.66,598.59,497.57,598.59z M500.29,611.51c0.14-0.61,0.26-1.39,0.26-2.22
				c0-2.4-1.01-4.4-3.99-4.4c-2.83,0-5.74,2.25-7.1,6.62H500.29z"/>
			<path class="st17" d="M515.76,599.31h6.68l-0.37,5.8h0.24c2.3-3.76,5.67-6.52,9.1-6.52c1.51,0,2.45,0.22,3.11,0.58l-2.7,7.12
				c-0.78-0.44-1.97-0.48-2.95-0.48c-2.63,0-5.08,1.83-7.42,6.03l-3.35,17.24h-8.21L515.76,599.31z"/>
		</g>
	</g>
</g>
<g id="Layer_3">
	<g id="XMLID_2_">
		<g>
			<path d="M150.82,411.52c-6.29,17.77-11.98,38.44-22.89,53.97c-5.5,7.83-12.59,15.36-22.03,17.8c-9.69,2.51-20.25-0.99-28.08-7.09
				c-7.83-6.1-13.42-14.57-18.98-22.67c-9.46-13.78-11.17-27.94-16.24-42.51c14.95,10.47,33.14,7.18,51.16,1.18
				c1.57-0.52,3.27-0.46,4.79,0.17C117.74,420.35,135.92,423.76,150.82,411.52z"/>
		</g>
		<g>
			<path class="st18" d="M42.6,411.02c14.95,10.47,33.14,7.18,51.16,1.18c1.57-0.52,3.27-0.46,4.79,0.17
				c19.18,7.98,37.37,11.39,52.26-0.85"/>
			<path class="st18" d="M42.6,411.02c5.07,14.57,6.78,28.73,16.24,42.51c5.55,8.1,11.15,16.57,18.98,22.67
				c7.83,6.1,18.39,9.6,28.08,7.09c9.44-2.44,16.52-9.97,22.03-17.8c10.91-15.53,16.6-36.2,22.89-53.97"/>
		</g>
	</g>
	<g id="XMLID_3_">
		<g>
			<path class="st2" d="M288.65,423.71c-0.25,8.74-1.9,17.44-4.86,25.67c-0.66,1.84-1.44,3.72-2.93,5
				c-1.02,0.88-2.48,1.35-3.77,1.15c-0.58-0.1-1.13-0.32-1.59-0.71c3.34-2.86,4.83-7.47,5.68-11.79c0.75-3.76,1.39-7.78,1.93-11.75
				c0.34-2.47,0.63-4.91,0.89-7.27C285.55,423.97,287.1,423.87,288.65,423.71z"/>
			<path class="st2" d="M231.41,419.32c17.61-0.62,35.07,5.25,52.59,4.69c-0.26,2.36-0.55,4.8-0.89,7.27
				c-22.63-5.59-47.24-4.91-70.54-3.95c-6.55,0.27-14.1,0.48-20.65,0.75h-0.01c-0.38-1.83-0.68-3.68-0.91-5.55l0.04-0.26
				C204.35,424.1,217.89,419.8,231.41,419.32z"/>
			<path class="st19" d="M283.11,431.28c-0.54,3.97-1.18,7.99-1.93,11.75c-0.85,4.32-2.34,8.93-5.68,11.79
				c0.46,0.39,1.01,0.61,1.59,0.71l-0.01,0.04c-3.68,5.83-9.18,11.72-13.51,17.18c-4.3,5.42-8.48,8.81-15.27,10.14
				c-2.72,0.53-6.1,0.7-8.87,0.46c-8.16-0.69-13.15-2.33-20.02-8.15c-5.09-4.31-9.51-12.4-15.38-15.56v-0.03
				c0.48,0,0.96-0.01,1.44-0.02c-0.16-1.78-1.25-3.31-2.25-4.79c-5.55-8.18-9.39-17.14-11.31-26.72h0.01
				c6.55-0.27,14.1-0.48,20.65-0.75C235.87,426.37,260.48,425.69,283.11,431.28z"/>
			<path class="st2" d="M205.47,459.59c-0.48,0.01-0.96,0.02-1.44,0.02c-0.61,0.02-1.21,0.02-1.81,0.03
				c-2.55-2.38-5.1-4.76-7.65-7.15c-1.36-1.27-2.74-2.57-3.61-4.21c-0.82-1.57-1.13-3.34-1.43-5.08c-1.08-6.4-2.14-12.8-3.17-19.21
				c-0.08-0.54-0.16-1.12,0.07-1.62c0.24-0.5,2-0.81,2.43-0.46c0.73,0.14,1.45,0.26,2.18,0.36l-0.04,0.26
				c0.23,1.87,0.53,3.72,0.91,5.55c1.92,9.58,5.76,18.54,11.31,26.72C204.22,456.28,205.31,457.81,205.47,459.59z"/>
		</g>
		<g>
		</g>
	</g>
	<g>
		<g>
			<path class="st2" d="M188.7,421.76c-0.44-3.87-1.43-7.63-2.4-11.39c-0.2-0.78-1.41-0.45-1.21,0.33
				c0.94,3.65,1.93,7.31,2.36,11.06C187.54,422.55,188.79,422.56,188.7,421.76L188.7,421.76z"/>
		</g>
	</g>
	<g>
		<g>
			<path class="st2" d="M288.48,424.33c1.02-2.21,1.74-4.52,2.41-6.86c0.76-2.67,1.36-5.4,2.5-7.94c0.33-0.73-0.75-1.36-1.08-0.63
				c-2.14,4.75-2.73,10.04-4.91,14.79C287.07,424.42,288.15,425.06,288.48,424.33L288.48,424.33z"/>
		</g>
	</g>
	<g class="st20">
		<g>
			<path d="M198.79,440.47c4.21-0.12,8.43-0.24,12.64-0.35c2.05-0.06,4.1-0.12,6.15-0.17c1.98-0.05,3.91-0.03,5.81,0.58
				c1.54,0.49,2.19-1.92,0.66-2.41c-3.83-1.23-8.17-0.62-12.13-0.51c-4.38,0.12-8.76,0.24-13.14,0.37
				C197.18,438.01,197.18,440.51,198.79,440.47L198.79,440.47z"/>
		</g>
	</g>
	<g class="st20">
		<g>
			<path d="M227.32,441.77c4.76,1.39,9.78,3.41,14.8,3.44c4.74,0.03,8.38-2.53,11.94-5.36c1.26-1-0.52-2.76-1.77-1.77
				c-3.33,2.65-6.65,4.88-11.09,4.6c-4.47-0.28-8.95-2.08-13.22-3.32C226.44,438.91,225.78,441.32,227.32,441.77L227.32,441.77z"/>
		</g>
	</g>
	<g class="st20">
		<g>
			<path d="M257.74,439.49c3.31,0.21,6.63,0.43,9.94,0.64c3.01,0.19,6.01,0.41,8.84,1.54c1.5,0.59,2.14-1.82,0.66-2.41
				c-2.91-1.16-6.05-1.4-9.15-1.6c-3.43-0.22-6.87-0.44-10.3-0.66C256.13,436.89,256.14,439.39,257.74,439.49L257.74,439.49z"/>
		</g>
	</g>
	<g class="st20">
		<g>
			<path d="M206.63,451.28c4.64,1.82,9.28,3.64,13.92,5.47c4.58,1.8,9.17,3.99,13.94,5.24c2.19,0.57,4.42,0.78,6.66,0.46
				c2.34-0.34,4.59-1.07,6.94-1.38c2.31-0.31,4.65-0.46,6.91-1.1c2.18-0.62,4.21-1.68,6.24-2.68c5.07-2.5,10.15-4.99,15.22-7.49
				c1.44-0.71,0.18-2.87-1.26-2.16c-4.33,2.13-8.65,4.26-12.98,6.39c-2.05,1.01-4.08,2.12-6.21,2.96c-2.15,0.84-4.39,1.15-6.67,1.42
				c-4.5,0.53-8.95,2.37-13.49,1.34c-4.54-1.03-8.91-3.17-13.23-4.86c-5.1-2-10.21-4.01-15.31-6.01
				C205.79,448.28,205.14,450.69,206.63,451.28L206.63,451.28z"/>
		</g>
	</g>
	<g class="st20">
		<g>
			<path d="M219.44,468.05c4,1.3,8,2.59,12,3.89c3.85,1.25,7.79,2.85,11.91,2.74c3.99-0.1,7.8-1.51,11.46-2.98
				c3.77-1.52,7.46-3.24,11.05-5.15c1.42-0.76,0.16-2.92-1.26-2.16c-3.47,1.85-7.02,3.53-10.67,4.99c-3.51,1.41-7.2,2.82-11.04,2.81
				c-3.85-0.01-7.63-1.63-11.24-2.81c-3.85-1.25-7.69-2.49-11.54-3.74C218.57,465.14,217.92,467.56,219.44,468.05L219.44,468.05z"/>
		</g>
	</g>
	<g class="st20">
		<g>
			<path d="M87.79,433.5c0.35,5.76,0.45,11.6,1.17,17.34c0.59,4.71,1.87,9.41,5.3,12.88c1.13,1.15,2.9-0.62,1.77-1.77
				c-3.22-3.25-4.24-7.85-4.69-12.25c-0.55-5.37-0.72-10.8-1.04-16.19C90.2,431.9,87.7,431.89,87.79,433.5L87.79,433.5z"/>
		</g>
	</g>
	<g class="st20">
		<g>
			<path class="st21" d="M87.1,427.64c-1.18,8.11-1.82,16.28-1.77,24.48c0.03,3.97,0.21,7.93,0.54,11.89
				c0.3,3.59,0.91,7.71,4.5,9.53c1.81,0.91,4.07,0.48,5.13-1.35c0.98-1.67,0.47-4.21-1.35-5.13c-0.32-0.19-0.38-0.2-0.16-0.03
				c0.2,0.18,0.17,0.15-0.1-0.1c0.07,0.09,0.13,0.18,0.2,0.27c-0.12-0.18-0.22-0.36-0.32-0.55c0.25,0.47,0.06,0.14-0.03-0.18
				c-0.08-0.27-0.13-0.55-0.2-0.82c-0.25-1.04,0.04,0.71-0.06-0.34c-0.04-0.43-0.08-0.86-0.12-1.3c-0.07-0.81-0.13-1.61-0.19-2.42
				c-0.25-3.63-0.37-7.28-0.36-10.92c0.02-7.01,0.51-14.19,1.5-21.03c0.28-1.93-0.48-4.12-2.62-4.61
				C89.94,424.62,87.41,425.57,87.1,427.64L87.1,427.64z"/>
		</g>
	</g>
	<g class="st20">
		<g>
			<path class="st21" d="M97.47,429.08c1.14,13.02,1.42,26.09,0.84,39.14c-0.09,1.96,1.79,3.84,3.75,3.75
				c2.11-0.09,3.66-1.65,3.75-3.75c0.58-13.05,0.3-26.13-0.84-39.14c-0.17-1.95-1.6-3.85-3.75-3.75
				C99.33,425.41,97.28,426.98,97.47,429.08L97.47,429.08z"/>
		</g>
	</g>
	<g class="st20">
		<g>
			<path class="st21" d="M53.41,427.08c10.31,3.69,21.33,4.69,32.16,3.19c1.34-0.19,2.07-1.9,1.75-3.08
				c-0.4-1.44-1.73-1.93-3.08-1.75c-9.92,1.38-20.09,0.18-29.5-3.19c-1.27-0.46-2.74,0.51-3.08,1.75
				C51.29,425.39,52.14,426.62,53.41,427.08L53.41,427.08z"/>
		</g>
	</g>
	<g class="st20">
		<g>
			<path class="st21" d="M106.99,429.49c10.7,2.54,21.71,2.94,32.58,1.29c1.34-0.2,2.07-1.88,1.75-3.08
				c-0.39-1.43-1.74-1.95-3.08-1.75c-9.94,1.51-20.15,1.03-29.92-1.29C105.19,423.92,103.86,428.74,106.99,429.49L106.99,429.49z"/>
		</g>
	</g>
	<path class="st22" d="M409.71,446.99c0,19.25-18.43,33.76-31.43,33.76s-32.26-16.72-32.26-35.97c0-19.25,22.02-37.51,31.84-37.58
		C389.04,407.12,409.71,427.74,409.71,446.99z"/>
	<g>
		<g>
			<path class="st23" d="M350.16,430.89c-8.17-8.06-16.76-15.69-25.72-22.86c-0.62-0.5-1.51,0.38-0.88,0.88
				c8.96,7.17,17.55,14.8,25.72,22.86C349.85,432.34,350.74,431.45,350.16,430.89L350.16,430.89z"/>
		</g>
	</g>
	<g>
		<g>
			<path class="st23" d="M323.32,408.62c2.48,14.32,10.02,27.38,21.21,36.65c0.62,0.51,1.5-0.37,0.88-0.88
				c-11.05-9.15-18.44-21.97-20.89-36.1C324.38,407.5,323.18,407.84,323.32,408.62L323.32,408.62z"/>
		</g>
	</g>
	<g>
		<g>
			<path class="st23" d="M407.16,433.4c9.66-5.27,17.83-13,23.64-22.34c-0.39-0.11-0.78-0.21-1.16-0.32
				c-1.47,14.33-11.38,25.58-20.58,35.86c-0.54,0.6,0.35,1.48,0.88,0.88c9.46-10.56,19.44-22.03,20.95-36.74
				c0.07-0.65-0.86-0.8-1.16-0.32c-5.7,9.17-13.71,16.73-23.19,21.9C405.82,432.71,406.45,433.79,407.16,433.4L407.16,433.4z"/>
		</g>
	</g>
	<g>
		<g>
			<path class="st24" d="M366.94,429.68c2.33-2.19,4.65-4.38,6.98-6.56c1.91-1.77,3.78-3.17,6.35-1.79
				c4.58,2.45,7.68,6.96,12.28,9.45c2.12,1.15,4.02-2.09,1.89-3.24c-2.56-1.38-4.64-3.37-6.8-5.3c-2.19-1.96-4.62-4.14-7.49-5.01
				c-3.13-0.95-5.88,0.56-8.17,2.58c-2.64,2.32-5.14,4.81-7.7,7.22C362.53,428.69,365.18,431.33,366.94,429.68L366.94,429.68z"/>
		</g>
	</g>
	<g class="st20">
		<g>
			<path class="st24" d="M363.82,443.18c4.69,1.62,9.49,3.21,14.5,3.35c5.03,0.14,9.93-1.32,14.67-2.87c2.28-0.75,1.31-4.37-1-3.62
				c-4.42,1.44-8.97,2.86-13.67,2.73c-4.66-0.13-9.14-1.72-13.5-3.22C362.53,438.78,361.55,442.4,363.82,443.18L363.82,443.18z"/>
		</g>
	</g>
	<g class="st20">
		<g>
			<path class="st24" d="M364.75,451.24c2.47,0.64,4.93,1.29,7.4,1.93c2.51,0.66,5.02,1.39,7.6,1.72c4.85,0.62,9.55-0.85,13.75-3.21
				c2.11-1.18,0.22-4.42-1.89-3.24c-3.76,2.11-7.93,3.39-12.26,2.62c-4.58-0.81-9.1-2.27-13.6-3.44
				C363.41,447.02,362.41,450.63,364.75,451.24L364.75,451.24z"/>
		</g>
	</g>
	<g class="st20">
		<g>
			<path class="st24" d="M366.1,460.33c9.29,4.44,20.06,4.55,29.46,0.36c0.93-0.42,1.13-1.75,0.67-2.57
				c-0.55-0.96-1.65-1.08-2.57-0.67c-8.07,3.6-17.7,3.44-25.67-0.36C365.83,456.06,363.92,459.29,366.1,460.33L366.1,460.33z"/>
		</g>
	</g>
	<g>
		<path class="st2" d="M470.75,428.15c10.96-6.94,22.69-12.65,34.92-17c3.82-1.36,7.88-2.6,11.88-1.95c2.35,0.38,4.55,1.4,6.71,2.4
			c5.9,2.74,11.8,5.48,17.7,8.22c5.22,2.42,10.47,4.87,15.1,8.29c1.09,0.81,2.17,1.71,2.77,2.93c0.73,1.49,0.62,3.24,0.38,4.88
			c-1.64,11.05-8.61,20.46-15.41,29.32c-5.79,7.54-12.39,15.56-21.69,17.55c-5.8,1.24-11.93-0.12-17.25-2.75s-9.94-6.46-14.38-10.4
			c-4.3-3.81-8.53-7.8-11.76-12.55c-5.65-8.32-7.88-18.42-10-28.25"/>
		<g>
			<path class="st2" d="M471.7,429.76c6.97-4.4,14.23-8.32,21.75-11.7c3.68-1.66,7.42-3.17,11.21-4.56
				c3.84-1.41,8.01-3.04,12.18-2.52c1.98,0.25,3.86,1.04,5.66,1.86c1.97,0.9,3.93,1.83,5.9,2.74c3.98,1.85,7.96,3.7,11.94,5.55
				c3.65,1.7,7.32,3.38,10.82,5.39c1.75,1,3.48,2.08,5.07,3.31c1.56,1.2,2.34,2.42,2.26,4.42c-0.15,3.64-1.45,7.44-2.9,10.75
				c-1.54,3.5-3.49,6.8-5.61,9.97c-4.01,5.99-8.43,11.98-13.41,17.21c-4.81,5.06-10.74,9.2-17.98,9.19
				c-7.91-0.01-15.06-4.2-21.05-9.02c-6.09-4.9-12.41-10.33-16.69-16.94c-4.19-6.47-6.34-13.94-8.07-21.38
				c-0.44-1.9-0.85-3.8-1.26-5.7c-0.51-2.36-4.12-1.36-3.62,1c1.74,8.08,3.56,16.25,7.28,23.7c3.82,7.66,9.92,13.56,16.3,19.11
				c6.35,5.53,13.43,10.83,21.89,12.45c4.01,0.77,8.16,0.73,12.08-0.48c3.59-1.11,6.79-3.07,9.68-5.44
				c5.92-4.84,10.52-11.31,15.01-17.43c4.79-6.52,9.24-13.58,11.22-21.52c0.96-3.88,1.77-8.31-1.26-11.48
				c-1.44-1.51-3.33-2.69-5.09-3.79c-1.86-1.17-3.78-2.22-5.74-3.21c-8.15-4.13-16.56-7.84-24.87-11.64
				c-1.9-0.87-3.85-1.73-5.91-2.13c-2.25-0.44-4.5-0.36-6.76,0.02c-4.32,0.73-8.51,2.5-12.56,4.11
				c-8.16,3.24-16.09,7.07-23.69,11.48c-1.91,1.11-3.8,2.26-5.67,3.44C467.77,427.81,469.65,431.06,471.7,429.76L471.7,429.76z"/>
		</g>
	</g>
	<path class="st25" d="M528.92,457.99h-23.53c-1.52,0-2.76-1.23-2.76-2.76v-20.37c0-1.65,1.33-2.98,2.98-2.98h22.72
		c1.83,0,3.3,1.48,3.3,3.3v20.08C531.64,456.77,530.42,457.99,528.92,457.99z"/>
	<g>
		<g>
			<path class="st26" d="M460.5,407.39c0.35,8.24,3.54,16.11,9.02,22.28c1.61,1.81,4.25-0.85,2.65-2.65
				c-4.8-5.4-7.62-12.41-7.92-19.63C464.15,404.99,460.4,404.98,460.5,407.39L460.5,407.39z"/>
		</g>
	</g>
	<g>
		<g>
			<path class="st26" d="M567.38,409.32c-0.59,4.18-0.99,8.45-1.83,12.59c-0.4,1.96-1.33,3.09-2.74,4.44
				c-1.5,1.44-3.04,2.85-4.6,4.23c-1.81,1.6,0.85,4.25,2.65,2.65c1.67-1.47,3.31-2.97,4.9-4.52c1.5-1.46,2.68-3,3.23-5.05
				c0.55-2.07,0.71-4.28,1.01-6.4c0.33-2.32,0.66-4.64,0.99-6.95c0.14-1-0.25-2.01-1.31-2.31
				C568.81,407.77,567.52,408.31,567.38,409.32L567.38,409.32z"/>
		</g>
	</g>
</g>
<g id="Layer_4">
	<rect x="508.4" y="440.92" class="st3" width="17.48" height="12.23"/>
	<text transform="matrix(1 0 0 1 509.1056 447.376)" class="st27 st28">N95</text>
	<g class="st29">
		<g>
			<path class="st30" d="M487.83,444.16c4.86-2.7,9.91-5.03,15.13-6.94c1.5-0.55,0.85-2.97-0.66-2.41
				c-5.42,1.99-10.69,4.39-15.73,7.19C485.16,442.79,486.42,444.95,487.83,444.16L487.83,444.16z"/>
		</g>
	</g>
	<g class="st29">
		<g>
			<path class="st30" d="M493.87,451.03c3.13-1.6,6.26-3.2,9.39-4.8c0.6-0.31,0.78-1.15,0.45-1.71c-0.36-0.61-1.11-0.76-1.71-0.45
				c-3.13,1.6-6.26,3.2-9.39,4.8c-0.6,0.31-0.78,1.15-0.45,1.71C492.52,451.19,493.27,451.34,493.87,451.03L493.87,451.03z"/>
		</g>
	</g>
	<g class="st29">
		<g>
			<path class="st30" d="M531.31,437.22c4.61,1.11,9.12,2.63,13.45,4.57c0.62,0.28,1.34,0.18,1.71-0.45
				c0.31-0.53,0.17-1.43-0.45-1.71c-4.53-2.03-9.22-3.66-14.05-4.82C530.41,434.43,529.74,436.84,531.31,437.22L531.31,437.22z"/>
		</g>
	</g>
	<g class="st29">
		<g>
			<path class="st30" d="M532.14,445.23c3.53,1.24,7.08,2.41,10.65,3.52c1.54,0.48,2.2-1.94,0.66-2.41
				c-3.57-1.11-7.12-2.28-10.65-3.52c-0.64-0.22-1.37,0.25-1.54,0.87C531.07,444.39,531.5,445.01,532.14,445.23L532.14,445.23z"/>
		</g>
	</g>
</g>
</svg>
