<svg id="Layer_1" data-name="Layer 1" xmlns="http://www.w3.org/2000/svg" viewBox="0 0 305.81 305.81"><defs><style>.cls-1{fill:#a3a3a3;}.cls-2{fill:#fff;}</style></defs><circle class="cls-1" cx="152.91" cy="152.91" r="152.91"/><path class="cls-2" d="M7233,7279.05c0,13.51,1.1,18.23,17.76,18.23h.94v.94h-70.07v-.94h.94c12.1,0,14.45-4.24,14.45-18.23V7192.8l-28,105.42h-19.17l-31.58-106.52v77c0,20.43,3,28.6,18.07,28.6h1.73v.94h-41v-.94h1.57c15.08,0,18.38-8.17,18.38-28.6v-74.31c0-13.51-.78-18.23-17.44-18.23h-1.25v-.94h54.52l24.5,87,23.26-87h51.06v.94h-.94c-16.66,0-17.76,4.72-17.76,18.23Z" transform="translate(-7042.52 -7083.8)"/><path class="cls-2" d="M7255.88,7294.61c16.82-7.55,27-18.23,28.44-50.91h1.1v54.52H7177.48v-.94h1c16.65,0,17.75-4.72,17.75-18.23v-84.68c0-13.51-1.1-18.23-17.75-18.23h-1v-.94H7251v.94h-1.1c-16.65,0-17.59,4.72-17.59,18.23v84.68c0,16.5.63,18.07,7.85,18.07C7246.46,7297.12,7252.27,7296.33,7255.88,7294.61Z" transform="translate(-7042.52 -7083.8)"/></svg>